<?xml version="1.0" encoding="UTF-8"?>
<svg width="17px" height="17px" viewBox="0 0 17 17" version="1.1" xmlns="http://www.w3.org/2000/svg" xmlns:xlink="http://www.w3.org/1999/xlink">
    <!-- Generator: Sketch 63.1 (92452) - https://sketch.com -->
    <title>形状</title>
    <desc>Created with Sketch.</desc>
    <g id="页面1" stroke="none" stroke-width="1" fill="none" fill-rule="evenodd">
        <g id="按钮" transform="translate(-450.000000, -74.000000)" fill="#FD2511" fill-rule="nonzero">
            <g id="编组" transform="translate(450.000000, 74.000000)">
                <path d="M8.51124729,0 C3.81683054,0 0.0111625877,3.80548842 0.0111625877,8.49987293 C0.0111625877,13.1942574 3.81683054,17 8.51124729,17 C13.2056641,17 17.0111626,13.1941727 17.0111626,8.49987293 C17.0111626,3.80557313 13.2056641,0 8.51124729,0 Z M12.2728738,13 C11.892301,10.9894194 9.975136,9.46384518 7.85531513,9.46384518 L7.85531513,11.3908578 C7.86656626,11.4839822 7.83443955,11.5482341 7.76151054,11.6189246 C7.62114256,11.760238 7.40242335,11.7024249 7.28326984,11.5996762 L4.09262631,8.10215378 C4.02484844,8.03471647 3.99597506,7.94477747 4.0004484,7.85809172 C3.99597506,7.76815272 4.02484844,7.68146698 4.09262631,7.61402967 L7.3008921,4.0939378 C7.42811117,3.9686874 7.63429147,3.9686874 7.76144278,4.0939378 C7.83464288,4.16781385 7.86066959,4.26419158 7.84975735,4.36050154 L7.84975735,6.25545598 C10.5132924,6.25545598 12.6729666,8.41372091 12.6729666,11.0763085 C12.6729666,11.7603058 12.529142,12.4090594 12.2728738,13 Z" id="形状"></path>
            </g>
        </g>
    </g>
</svg>