<?xml version="1.0" encoding="UTF-8"?>
<svg width="20px" height="18px" viewBox="0 0 20 18" version="1.1" xmlns="http://www.w3.org/2000/svg" xmlns:xlink="http://www.w3.org/1999/xlink">
    <!-- Generator: Sketch 55.1 (78136) - https://sketchapp.com -->
    <title>编组 10</title>
    <desc>Created with Sketch.</desc>
    <g id="Page-1" stroke="none" stroke-width="1" fill="none" fill-rule="evenodd">
        <g id="2" transform="translate(-1024.000000, -251.000000)">
            <g id="编组-10" transform="translate(1024.000000, 252.000000)">
                <path d="M11,2 L11,1 L13,1 C14.1045695,1 15,1.8954305 15,3 L15,6 C14.6592878,6 14.3252085,6.0283988 14,6.08295844 L14,3 C14,2.44771525 13.5522847,2 13,2 L11,2 Z M4,2 L2,2 C1.44771525,2 1,2.44771525 1,3 L1,15 C1,15.5522847 1.44771525,16 2,16 L10.527787,16 C10.8679898,16.3801046 11.2559383,16.7165804 11.6822049,17 L2,17 C0.8954305,17 0,16.1045695 0,15 L0,3 C0,1.8954305 0.8954305,1 2,1 L4,1 L4,2 Z" id="形状结合" fill="#60ACFC" fill-rule="nonzero"></path>
                <path d="M2.85253906,5 L8.5,5" id="路径-6" stroke="#60ACFC" stroke-linecap="round"></path>
                <path d="M2.85253906,8 L7.5,8" id="路径-6" stroke="#60ACFC" stroke-linecap="round"></path>
                <path d="M2.85253906,11 L7.5,11" id="路径-6" stroke="#60ACFC" stroke-linecap="round"></path>
                <path d="M15,12 L15,9.5 C15,9.22385763 14.7761424,9 14.5,9 C14.2238576,9 14,9.22385763 14,9.5 L14,12.5 C14,12.6380712 14.0559644,12.7630712 14.1464466,12.8535534 C14.2369288,12.9440356 14.3619288,13 14.5,13 L17.5,13 C17.7761424,13 18,12.7761424 18,12.5 C18,12.2238576 17.7761424,12 17.5,12 L15,12 Z M15,17 C12.2385763,17 10,14.7614237 10,12 C10,9.23857625 12.2385763,7 15,7 C17.7614237,7 20,9.23857625 20,12 C20,14.7614237 17.7614237,17 15,17 Z" id="形状结合" fill="#60ACFC"></path>
                <path d="M4,2 L4,1 C4,0.44771525 4.44771525,0 5,0 L5,0 L10,0 C10.5522847,0 11,0.44771525 11,1 L11,2" id="路径" stroke="#60ACFC"></path>
            </g>
        </g>
    </g>
</svg>