<?xml version="1.0" encoding="UTF-8"?>
<svg width="16px" height="16px" viewBox="0 0 16 16" version="1.1" xmlns="http://www.w3.org/2000/svg" xmlns:xlink="http://www.w3.org/1999/xlink">
    <!-- Generator: Sketch 55.1 (78136) - https://sketchapp.com -->
    <title>编组 11</title>
    <desc>Created with Sketch.</desc>
    <g id="Page-1" stroke="none" stroke-width="1" fill="none" fill-rule="evenodd">
        <g id="2" transform="translate(-462.000000, -292.000000)" fill="#999999" fill-rule="nonzero">
            <g id="编组-11" transform="translate(459.000000, 292.000000)">
                <path d="M11,0 C15.418,0 19,3.582 19,8 C19,12.418 15.418,16 11,16 C6.582,16 3,12.418 3,8 C3,3.582 6.582,0 11,0 Z M9,4 C8.44771525,4 8,4.44771525 8,5 L8,11 C8,11.5522847 8.44771525,12 9,12 C9.55228475,12 10,11.5522847 10,11 L10,5 C10,4.44771525 9.55228475,4 9,4 Z M13,4 C12.4477153,4 12,4.44771525 12,5 L12,11 C12,11.5522847 12.4477153,12 13,12 C13.5522847,12 14,11.5522847 14,11 L14,5 C14,4.44771525 13.5522847,4 13,4 Z" id="形状结合"></path>
            </g>
        </g>
    </g>
</svg>