<?xml version="1.0" encoding="UTF-8"?>
<svg width="16px" height="16px" viewBox="0 0 16 16" version="1.1" xmlns="http://www.w3.org/2000/svg" xmlns:xlink="http://www.w3.org/1999/xlink">
    <!-- Generator: Sketch 55.1 (78136) - https://sketchapp.com -->
    <title>Icon-shenhezhong</title>
    <desc>Created with Sketch.</desc>
    <g id="Page-1" stroke="none" stroke-width="1" fill="none" fill-rule="evenodd">
        <g id="2" transform="translate(-266.000000, -250.000000)" fill="#FFC41D" fill-rule="nonzero">
            <g id="Icon-shenhezhong" transform="translate(266.000000, 250.000000)">
                <path d="M8,0 C12.418278,0 16,3.581722 16,8 C16,12.418278 12.418278,16 8,16 C3.581722,16 0,12.418278 0,8 C0,3.581722 3.581722,0 8,0 Z M3.694,6.843 C3.374,6.843 3.102,6.939 2.878,7.163 C2.638,7.371 2.526,7.643 2.526,7.979 C2.526,8.299 2.638,8.571 2.878,8.795 C3.102,9.019 3.374,9.131 3.694,9.131 C4.014,9.131 4.302,9.019 4.542,8.811 C4.766,8.587 4.878,8.315 4.878,7.979 C4.878,7.643 4.766,7.371 4.542,7.163 C4.318,6.939 4.03,6.843 3.694,6.843 Z M8.038,6.843 C7.718,6.843 7.446,6.939 7.222,7.163 C6.982,7.371 6.87,7.643 6.87,7.979 C6.87,8.299 6.982,8.571 7.222,8.795 C7.446,9.019 7.718,9.131 8.038,9.131 C8.358,9.131 8.646,9.019 8.886,8.811 C9.11,8.587 9.222,8.315 9.222,7.979 C9.222,7.643 9.11,7.371 8.886,7.163 C8.662,6.939 8.374,6.843 8.038,6.843 Z M12.366,6.843 C12.046,6.843 11.758,6.939 11.534,7.163 C11.31,7.371 11.198,7.643 11.198,7.979 C11.198,8.299 11.31,8.571 11.534,8.795 C11.758,9.019 12.046,9.131 12.366,9.131 C12.686,9.131 12.974,9.019 13.198,8.811 C13.422,8.587 13.55,8.315 13.55,7.979 C13.55,7.643 13.438,7.371 13.214,7.163 C12.99,6.939 12.702,6.843 12.366,6.843 Z" id="形状"></path>
            </g>
        </g>
    </g>
</svg>