<?xml version="1.0" encoding="UTF-8"?>
<svg width="16px" height="16px" viewBox="0 0 16 16" version="1.1" xmlns="http://www.w3.org/2000/svg" xmlns:xlink="http://www.w3.org/1999/xlink">
    <!-- Generator: Sketch 55.1 (78136) - https://sketchapp.com -->
    <title>形状结合 2</title>
    <desc>Created with Sketch.</desc>
    <g id="Page-1" stroke="none" stroke-width="1" fill="none" fill-rule="evenodd">
        <g id="2" transform="translate(-460.000000, -252.000000)" fill="#777777">
            <g id="形状结合-2" transform="translate(460.000000, 252.000000)">
                <path d="M8,6.66666667 L6,4.66666667 C5.63181017,4.29847683 5.0348565,4.29847683 4.66666667,4.66666667 C4.29847683,5.0348565 4.29847683,5.63181017 4.66666667,6 L6.66666667,8 L4.66666667,10 C4.29847683,10.3681898 4.29847683,10.9651435 4.66666667,11.3333333 C5.0348565,11.7015232 5.63181017,11.7015232 6,11.3333333 L8,9.33333333 L10,11.3333333 C10.3681898,11.7015232 10.9651435,11.7015232 11.3333333,11.3333333 C11.7015232,10.9651435 11.7015232,10.3681898 11.3333333,10 L9.33333333,8 L11.3333333,6 C11.7015232,5.63181017 11.7015232,5.0348565 11.3333333,4.66666667 C10.9651435,4.29847683 10.3681898,4.29847683 10,4.66666667 L8,6.66666667 Z M8,16 C3.581722,16 0,12.418278 0,8 C0,3.581722 3.581722,0 8,0 C12.418278,0 16,3.581722 16,8 C16,12.418278 12.418278,16 8,16 Z" id="形状结合"></path>
            </g>
        </g>
    </g>
</svg>