<?xml version="1.0" encoding="UTF-8"?>
<svg width="20px" height="16px" viewBox="0 0 20 16" version="1.1" xmlns="http://www.w3.org/2000/svg" xmlns:xlink="http://www.w3.org/1999/xlink">
    <!-- Generator: Sketch 55.1 (78136) - https://sketchapp.com -->
    <title>编组 9</title>
    <desc>Created with Sketch.</desc>
    <g id="Page-1" stroke="none" stroke-width="1" fill="none" fill-rule="evenodd">
        <g id="2" transform="translate(-1023.000000, -286.000000)">
            <g id="编组-9" transform="translate(1023.000000, 286.000000)">
                <path d="M15,5 C14.6592878,5 14.3252085,5.0283988 14,5.08295844 L14,2 C14,1.44771525 13.5522847,1 13,1 L2,1 C1.44771525,1 1,1.44771525 1,2 L1,14 C1,14.5522847 1.44771525,15 2,15 L10.527787,15 C10.8679898,15.3801046 11.2559383,15.7165804 11.6822049,16 L2,16 C0.8954305,16 0,15.1045695 0,14 L0,2 C0,0.8954305 0.8954305,0 2,0 L13,0 C14.1045695,0 15,0.8954305 15,2 L15,5 Z" id="形状结合" fill="#979797" fill-rule="nonzero"></path>
                <path d="M2.85253906,4.27022222 L6.5,4.27022222" id="路径-6" stroke="#979797" stroke-linecap="round"></path>
                <path d="M2.85253906,8 L8.5,8" id="路径-6" stroke="#979797" stroke-linecap="round"></path>
                <path d="M2.85253906,12 L8.5,12" id="路径-6" stroke="#979797" stroke-linecap="round"></path>
                <path d="M15,10.3333333 L14,9.33333333 C13.8159051,9.14923842 13.5174282,9.14923842 13.3333333,9.33333333 C13.1492384,9.51742825 13.1492384,9.81590508 13.3333333,10 L14.3333333,11 L13.3333333,12 C13.1492384,12.1840949 13.1492384,12.4825718 13.3333333,12.6666667 C13.5174282,12.8507616 13.8159051,12.8507616 14,12.6666667 L15,11.6666667 L16,12.6666667 C16.1840949,12.8507616 16.4825718,12.8507616 16.6666667,12.6666667 C16.8507616,12.4825718 16.8507616,12.1840949 16.6666667,12 L15.6666667,11 L16.6666667,10 C16.8507616,9.81590508 16.8507616,9.51742825 16.6666667,9.33333333 C16.4825718,9.14923842 16.1840949,9.14923842 16,9.33333333 L15,10.3333333 Z M15,16 C12.2385763,16 10,13.7614237 10,11 C10,8.23857625 12.2385763,6 15,6 C17.7614237,6 20,8.23857625 20,11 C20,13.7614237 17.7614237,16 15,16 Z" id="形状结合" fill="#979797"></path>
            </g>
        </g>
    </g>
</svg>