<?xml version="1.0" standalone="no"?><!DOCTYPE svg PUBLIC "-//W3C//DTD SVG 1.1//EN" "http://www.w3.org/Graphics/SVG/1.1/DTD/svg11.dtd"><svg class="icon" width="200px" height="200.00px" viewBox="0 0 1024 1024" version="1.1" xmlns="http://www.w3.org/2000/svg"><path fill="#bfcbd9" d="M553.119048 70.97619c-15.642857-7.357143-34.095238-4.928571-47.366667 6.095238L249.690476 290.190476 45.619048 289.357143 45.438095 289.357143c-11.747619 0-23.071429 4.642857-31.380952 12.961905C5.666667 310.642857 0.928571 321.952381 0.928571 333.809524L0 689.97619c0 11.833333 4.628571 23.190476 12.985714 31.547619 8.309524 8.428571 19.666667 13.095238 31.52381 13.095238l206.5 0 254.771429 212.333333c8.128571 6.785714 18.309524 10.285714 28.47619 10.285714 6.428571 0 12.857143-1.404762 18.880952-4.214286 15.642857-7.333333 25.642857-23.02381 25.642857-40.309524L578.780952 111.271429C578.785714 94.033333 568.785714 78.319048 553.119048 70.97619L553.119048 70.97619zM725.738095 293.571429c-21.952381-10.380952-48.047619-0.928571-58.714286 20.928571-10.642857 21.914286-1.428571 48.428571 20.357143 59.390476 2.809524 1.461905 69.5 36.119048 69.5 134.819048 0 105.47619-62.357143 140.404762-64.428571 141.547619-22 11-30.928571 37.761905-19.928571 59.761905 7.857143 15.642857 23.52381 24.642857 39.904762 24.642857 6.666667 0 13.5-1.5 19.857143-4.690476 4.642857-2.357143 113.619048-58.761905 113.619048-221.261905C845.904762 351.938095 730.642857 295.890476 725.738095 293.571429L725.738095 293.571429zM864.357143 162.819048c-20.52381-13.17619-47.761905-7.17619-61.190476 13.309524-13.333333 20.485714-7.5 48.047619 12.928571 61.547619 4.809524 3.166667 118.857143 80.880952 118.857143 274.319048 0 193.880952-109.404762 271.666667-113.761905 274.642857-20.47619 13.666667-25.97619 41.261905-12.333333 61.738095 8.547619 12.857143 22.690476 19.809524 37.071429 19.809524 8.47619 0 17.071429-2.452381 24.666667-7.5 6.261905-4.119048 153.404762-105 153.404762-348.72381C1023.995238 267.795238 870.880952 167 864.357143 162.819048L864.357143 162.819048z" /></svg>