<?xml version="1.0" standalone="no"?><!DOCTYPE svg PUBLIC "-//W3C//DTD SVG 1.1//EN" "http://www.w3.org/Graphics/SVG/1.1/DTD/svg11.dtd"><svg t="1576077246956" class="icon" viewBox="0 0 1024 1024" version="1.1" xmlns="http://www.w3.org/2000/svg" p-id="47511" xmlns:xlink="http://www.w3.org/1999/xlink" width="200" height="200"><defs><style type="text/css"></style></defs><path d="M384.8 953.8c-20.4 0-37-16.6-37-37V718.6c0-20.4 16.6-37 37-37s37 16.6 37 37v198.2c0 20.4-16.6 37-37 37z" p-id="47512" fill="#bfcbd9"></path><path d="M384.8 755.6c-8.4 0-16.9-2.9-23.9-8.8-15.6-13.2-17.5-36.5-4.3-52.1l508-600.2c13.2-15.6 36.5-17.5 52.1-4.3 15.6 13.2 17.5 36.5 4.3 52.1L413 742.5c-7.3 8.6-17.7 13.1-28.2 13.1z" p-id="47513" fill="#bfcbd9"></path><path d="M782 959.7c-1.9 0-3.7-0.1-5.6-0.4-20.2-3.1-34-21.9-31-42.1l124.2-813.8c3.1-20.2 21.9-34 42.1-31 20.2 3.1 34 21.9 31 42.1L818.5 928.3c-2.8 18.3-18.6 31.4-36.5 31.4z" p-id="47514" fill="#bfcbd9"></path><path d="M113.4 573.9c-13.1 0-25.8-7-32.5-19.3-9.7-17.9-3.1-40.4 14.9-50.1l787-426.9c17.9-9.8 40.4-3.1 50.1 14.9s3.1 40.4-14.9 50.1L131 569.4c-5.6 3.1-11.7 4.5-17.6 4.5zM778.3 958.8c-5.6 0-11.3-1.3-16.7-4L517.7 830.9c-18.2-9.2-25.4-31.5-16.2-49.7 9.2-18.2 31.5-25.4 49.7-16.2L795 888.9c18.2 9.2 25.4 31.5 16.2 49.7-6.5 12.8-19.5 20.2-32.9 20.2z" p-id="47515" fill="#bfcbd9"></path><path d="M282 663.6c-5.7 0-11.5-1.3-16.9-4.1L96.4 572.8c-18.2-9.3-25.3-31.6-16-49.8 9.3-18.2 31.7-25.3 49.8-16L299 593.8c18.2 9.3 25.3 31.6 16 49.8-6.6 12.7-19.5 20-33 20z" p-id="47516" fill="#bfcbd9"></path></svg>