<?xml version="1.0" standalone="no"?><!DOCTYPE svg PUBLIC "-//W3C//DTD SVG 1.1//EN" "http://www.w3.org/Graphics/SVG/1.1/DTD/svg11.dtd"><svg t="1576077352333" class="icon" viewBox="0 0 1024 1024" version="1.1" xmlns="http://www.w3.org/2000/svg" p-id="51231" xmlns:xlink="http://www.w3.org/1999/xlink" width="200" height="200"><defs><style type="text/css"></style></defs><path d="M783.9744 593.92c15.701333 0 28.672 12.288 28.672 27.306667v273.066666c0 15.018667-12.9024 27.306667-28.672 27.306667a27.989333 27.989333 0 0 1-28.672-27.306667v-273.066666c0-15.018667 12.970667-27.306667 28.672-27.306667zM268.629333 266.24h343.586134c15.7696 0 28.672 12.288 28.672 27.306667 0 15.018667-12.9024 27.306667-28.672 27.306666H268.629333a27.989333 27.989333 0 0 1-28.603733-27.306666c0-15.018667 12.834133-27.306667 28.672-27.306667z m0 163.84h343.586134c15.7696 0 28.672 12.288 28.672 27.306667 0 15.018667-12.9024 27.306667-28.672 27.306666H268.629333a27.989333 27.989333 0 0 1-28.603733-27.306666c0-15.018667 12.834133-27.306667 28.672-27.306667z m0 163.84h200.430934c15.837867 0 28.672 12.288 28.672 27.306667 0 15.018667-12.834133 27.306667-28.672 27.306666H268.629333a27.989333 27.989333 0 0 1-28.603733-27.306666c0-15.018667 12.834133-27.306667 28.672-27.306667z" fill="#bfcbd9" p-id="51232"></path><path d="M640.8192 730.453333h286.3104c15.7696 0 28.603733 12.288 28.603733 27.306667 0 15.018667-12.834133 27.306667-28.672 27.306667H640.887467a27.989333 27.989333 0 0 1-28.672-27.306667c0-15.018667 12.834133-27.306667 28.672-27.306667z" fill="#bfcbd9" p-id="51233"></path><path d="M698.094933 102.4H182.749867C119.534933 102.4 68.266667 151.278933 68.266667 211.626667v600.746666c0 60.347733 51.268267 109.226667 114.4832 109.226667H555.008v-54.613333H182.749867c-31.607467 0-57.207467-24.439467-57.207467-54.613334V211.626667c0-30.173867 25.6-54.613333 57.207467-54.613334h515.345066c31.607467 0 57.275733 24.439467 57.275734 54.613334v327.68h57.207466V211.626667c0-60.347733-51.2-109.226667-114.4832-109.226667z" fill="#bfcbd9" p-id="51234"></path></svg>