<?xml version="1.0" standalone="no"?><!DOCTYPE svg PUBLIC "-//W3C//DTD SVG 1.1//EN" "http://www.w3.org/Graphics/SVG/1.1/DTD/svg11.dtd"><svg class="icon" width="200px" height="200.00px" viewBox="0 0 1024 1024" version="1.1" xmlns="http://www.w3.org/2000/svg"><path fill="#bfcbd9" d="M524.8 622.6c-9.1-9.1-23.8-9.1-32.9 0s-9.1 23.8 0 32.9l54.5 54.5c7.9 7.9 7.9 20.9 0 28.8L314 971.3c-7.7 7.7-21.1 7.7-28.8 0L52.7 738.9c-8-8-8-20.9 0-28.8l232.5-232.5c7.7-7.7 21.1-7.7 28.8 0l54.5 54.5c9.1 9.1 23.8 9.1 32.9 0s9.1-23.8 0-32.9l-54.5-54.5c-26.1-26.1-68.5-26.1-94.6 0L19.8 677.1c-26.1 26.1-26.1 68.5 0 94.6l232.5 232.5c13 13 30.2 19.6 47.3 19.6 17.1 0 34.3-6.5 47.3-19.6l232.5-232.5c26.1-26.1 26.1-68.6 0-94.6l-54.6-54.5zM1004.2 252.2L771.8 19.8c-26.1-26.1-68.5-26.1-94.6 0L444.7 252.2c-26.1 26.1-26.1 68.5 0 94.6l54.5 54.5c9.1 9.1 23.8 9.1 32.9 0s9.1-23.8 0-32.9L477.6 314c-3.8-3.8-6-9-6-14.4s2.1-10.6 6-14.4L710 52.7c7.7-7.7 21.1-7.7 28.8 0l232.5 232.5c3.8 3.8 6 9 6 14.4s-2.1 10.6-6 14.4L738.9 546.4c-7.7 7.7-21.1 7.7-28.8 0l-54.5-54.5c-9.1-9.1-23.8-9.1-32.9 0s-9.1 23.8 0 32.9l54.5 54.5c13 13 30.2 19.6 47.3 19.6s34.3-6.5 47.3-19.6l232.5-232.5c26-26 26-68.5-0.1-94.6zM315.2 701c4.5 4.5 10.5 6.8 16.4 6.8 6 0 11.9-2.3 16.4-6.8l353-352.9c9.1-9.1 9.1-23.8 0-32.9s-23.8-9.1-32.9 0L315.2 668.1c-9.1 9.1-9.1 23.8 0 32.9z" /></svg>