<?xml version="1.0" standalone="no"?><!DOCTYPE svg PUBLIC "-//W3C//DTD SVG 1.1//EN" "http://www.w3.org/Graphics/SVG/1.1/DTD/svg11.dtd"><svg class="icon" width="200px" height="200.00px" viewBox="0 0 1024 1024" version="1.1" xmlns="http://www.w3.org/2000/svg"><path fill="#bfcbd9" d="M736.70857156 40.57142844c-134.88 0-240 110.67428531-240 245.07428625 0 102.72 65.41714312 219.36 120.96 298.35428531 43.68 61.30285687 89.28 112.66285688 109.09714313 136.38857156 1.98857156 1.98857156 5.96571469 5.89714313 9.94285687 5.89714313 1.98857156 0 7.88571469-1.98857156 9.87428531-5.89714313 21.87428531-23.72571469 65.48571469-75.08571469 109.09714313-136.38857156 55.54285687-78.99428531 121.02857156-195.63428531 121.02857156-298.35428531 1.92-134.4-107.10857156-245.07428531-240-245.07428625z m0 342.85714312c-56.98285688 0-102.85714313-46.62857156-102.85714312-102.85714312 0-57.6 45.87428531-102.85714313 102.85714312-102.85714313s102.85714313 46.62857156 102.85714313 102.85714313-45.87428531 102.85714313-102.85714313 102.85714312z m-102.85714312 303.08571375L101.6 658.05714313l62.05714313-216.89142844a24.48 24.48 0 0 1 22.97142843-18.65142938l274.28571375-8.91428531c12.54857156 37.44 44.43428531 101.48571469 65.82857156 136.45714313 13.85142844 22.62857156 49.57714312 68.09142844 107.10857157 136.45714218zM460.91428531 925.48571469l-401.76-2.4c-8.36571469 0-16.73142844-2.05714313-20.91428531-10.35428625C32 908.61714312 32 900.25142844 32 891.88571469l54.30857156-189.05142938 517.30285688 34.42285782-142.62857157 188.16z m496.59428625-157.85142938l-160.04571468-14.88a4668.54857156 4668.54857156 0 0 0 99.70285781-126.72c2.05714313-8.22857156 8.36571469-12.41142844 12.48-20.70857062l47.86285687 162.30857062z m31.54285688 120.13714313c0 2.05714313 2.12571469 6.24 2.12571469 8.29714312a27.49714313 27.49714313 0 0 1-27.15428625 27.01714313H502.05714312l145.71428532-177.05142938 318.30857156 58.69714313 23.04 83.04z"  /></svg>