<?xml version="1.0" standalone="no"?><!DOCTYPE svg PUBLIC "-//W3C//DTD SVG 1.1//EN" "http://www.w3.org/Graphics/SVG/1.1/DTD/svg11.dtd"><svg t="1576077110715" class="icon" viewBox="0 0 1024 1024" version="1.1" xmlns="http://www.w3.org/2000/svg" p-id="42932" xmlns:xlink="http://www.w3.org/1999/xlink" width="200" height="200"><defs><style type="text/css"></style></defs><path d="M307.2 724.48v-15.36c0-7.68 7.68-15.36 15.36-15.36h217.6l7.68-7.68 117.76-115.2H322.56c-7.68 0-15.36-7.68-15.36-15.36v-15.36c0-7.68 7.68-15.36 15.36-15.36h391.68l151.04-148.48V125.44c0-15.36-12.8-28.16-28.16-28.16H399.36l-199.68 2.56c-20.48-2.56-33.28 15.36-33.28 30.72v755.2c0 15.36 15.36 33.28 30.72 30.72h235.52l48.64-145.92V768c0-5.12 5.12-25.6 5.12-30.72h-166.4c-5.12 2.56-12.8-5.12-12.8-12.8z m0-373.76c0-7.68 7.68-15.36 15.36-15.36h404.48c7.68 0 15.36 7.68 15.36 15.36v15.36c0 7.68-7.68 15.36-15.36 15.36H322.56c-7.68 0-15.36-7.68-15.36-15.36v-15.36z m660.48 181.76L896 463.36c-10.24-10.24-28.16-7.68-40.96 2.56l-38.4 38.4 107.52 104.96 38.4-38.4c12.8-10.24 12.8-28.16 5.12-38.4z m-376.32 192L542.72 768c-2.56 0-5.12 5.12-5.12 10.24v2.56l-43.52 130.56c-2.56 5.12 0 7.68 2.56 10.24 2.56 2.56 7.68 2.56 10.24 2.56l133.12-40.96h2.56c5.12 0 7.68-5.12 10.24-5.12l256-248.32-107.52-104.96-209.92 199.68z" fill="#bfcbd9" p-id="42933"></path></svg>