<?xml version="1.0" standalone="no"?><!DOCTYPE svg PUBLIC "-//W3C//DTD SVG 1.1//EN" "http://www.w3.org/Graphics/SVG/1.1/DTD/svg11.dtd"><svg t="1576077327495" class="icon" viewBox="0 0 1024 1024" version="1.1" xmlns="http://www.w3.org/2000/svg" p-id="50256" xmlns:xlink="http://www.w3.org/1999/xlink" width="200" height="200"><defs><style type="text/css"></style></defs><path d="M932.392916 558.135292V871.395248a61.130367 61.130367 0 0 1-60.975551 60.997668h-718.790497A61.130367 61.130367 0 0 1 91.607084 871.395248V152.604752a61.152484 61.152484 0 0 1 61.019784-60.997668h466.660907V0h-466.660907a152.848035 152.848035 0 0 0-152.604751 152.604752v718.790496a152.870151 152.870151 0 0 0 152.604751 152.604752h718.790497a152.870151 152.870151 0 0 0 152.604752-152.604752V558.135292z" p-id="50257" fill="#bfcbd9"></path><path d="M343.227991 446.932873l-64.779611 64.779611 175.495464 175.495464 64.779612 64.779611 64.779611-64.779611L964.196631 306.536501l-64.779612-64.779611-380.693563 380.671447-175.495465-175.495464z" p-id="50258" fill="#bfcbd9"></path></svg>