<?xml version="1.0" standalone="no"?><!DOCTYPE svg PUBLIC "-//W3C//DTD SVG 1.1//EN" "http://www.w3.org/Graphics/SVG/1.1/DTD/svg11.dtd"><svg t="1576077340098" class="icon" viewBox="0 0 1024 1024" version="1.1" xmlns="http://www.w3.org/2000/svg" p-id="50432" xmlns:xlink="http://www.w3.org/1999/xlink" width="200" height="200"><defs><style type="text/css"></style></defs><path d="M511.829333 748.202667l44.8-44.032 178.858667 176.042666-44.714667 44.032-178.944-176.042666z" p-id="50433" fill="#bfcbd9"></path><path d="M1043.66686777 584.81777778l50.87535445 50.09863111-356.32165888 350.39914666-50.77826446-50.0986311 356.22456889-350.39914667zM220.72888889 621.22666667h182.04444444a36.40888889 36.40888889 0 0 1 0 72.81777778H220.72888889a36.40888889 36.40888889 0 0 1 0-72.81777778z m0-218.45333334h436.90666666a36.40888889 36.40888889 0 0 1 0 72.81777778H220.72888889a36.40888889 36.40888889 0 0 1 0-72.81777778z m0-218.45333333h436.90666666a36.40888889 36.40888889 0 0 1 0 72.81777778H220.72888889a36.40888889 36.40888889 0 0 1 0-72.81777778z" p-id="50434" fill="#bfcbd9"></path><path d="M750.93333333 0h-614.4a136.53333333 136.53333333 0 0 0-136.53333333 136.53333333v750.93333334a136.53333333 136.53333333 0 0 0 136.53333333 136.53333333H580.26666667v-68.26666667H136.53333333a68.26666667 68.26666667 0 0 1-68.26666666-68.26666666v-750.93333334a68.26666667 68.26666667 0 0 1 68.26666666-68.26666666h614.4a68.26666667 68.26666667 0 0 1 68.26666667 68.26666666v409.6h68.26666667v-409.6a136.53333333 136.53333333 0 0 0-136.53333334-136.53333333z" p-id="50435" fill="#bfcbd9"></path></svg>