<?xml version="1.0" standalone="no"?><!DOCTYPE svg PUBLIC "-//W3C//DTD SVG 1.1//EN" "http://www.w3.org/Graphics/SVG/1.1/DTD/svg11.dtd"><svg t="1576077189396" class="icon" viewBox="0 0 1024 1024" version="1.1" xmlns="http://www.w3.org/2000/svg" p-id="45892" xmlns:xlink="http://www.w3.org/1999/xlink" width="200" height="200"><defs><style type="text/css"></style></defs><path d="M880.128 705.92c-113.536 0-187.776-24.576-215.104-70.912-27.328-46.272-2.88-103.872 5.632-121.856a252.288 252.288 0 0 0 38.016-354.688 252.16 252.16 0 1 0-356.864 352.96c7.168 14.336 34.88 76.544 6.656 124.544-28.16 48.064-101.248 70.016-214.912 70.016a79.168 79.168 0 0 0-78.912 78.528v95.232a79.36 79.36 0 0 0 78.912 78.912h736.64a79.36 79.36 0 0 0 78.848-78.912v-95.232a79.232 79.232 0 0 0-78.912-78.592zM305.28 316.672A207.488 207.488 0 1 1 512.768 524.16h-0.832A207.616 207.616 0 0 1 305.28 316.672z m92.096 340.8a153.088 153.088 0 0 0 14.08-110.08c64 28.544 136.96 28.992 201.216 1.216a152.64 152.64 0 0 0 14.336 108.864c12.032 19.84 28.8 36.416 48.512 48.512H348.864c19.776-12.16 36.352-28.736 48.512-48.512z m516.992 222.208a34.432 34.432 0 0 1-34.24 34.176H143.552a34.432 34.432 0 0 1-34.176-34.176v-95.232a34.432 34.432 0 0 1 34.176-33.728h736.64a34.432 34.432 0 0 1 34.176 33.728v95.232z" p-id="45893" fill="#bfcbd9"></path></svg>