<?xml version="1.0" standalone="no"?><!DOCTYPE svg PUBLIC "-//W3C//DTD SVG 1.1//EN" "http://www.w3.org/Graphics/SVG/1.1/DTD/svg11.dtd"><svg t="1576077184921" class="icon" viewBox="0 0 1024 1024" version="1.1" xmlns="http://www.w3.org/2000/svg" p-id="45713" xmlns:xlink="http://www.w3.org/1999/xlink" width="200" height="200"><defs><style type="text/css"></style></defs><path d="M681.344 393.344a32 32 0 0 1 45.312 45.312l-192 192a32 32 0 0 1-49.28-4.928l-64-96a32 32 0 0 1 53.248-35.456l42.368 63.488 164.352-164.416zM832 832v64h-64v-64H256a64 64 0 0 1-64-64V384H128V320h64V256a64 64 0 0 1 64-64h64V96a32 32 0 0 1 64 0V192h384V96a32 32 0 1 1 64 0V192h64a64 64 0 0 1 64 64v512a64 64 0 0 1-64 64h-64zM256 256v512h640V256H256zM128 320v576h704a64 64 0 0 1-64 64H128a64 64 0 0 1-64-64V384a64 64 0 0 1 64-64z" fill="#bfcbd9" p-id="45714"></path></svg>