<?xml version="1.0" standalone="no"?><!DOCTYPE svg PUBLIC "-//W3C//DTD SVG 1.1//EN" "http://www.w3.org/Graphics/SVG/1.1/DTD/svg11.dtd"><svg class="icon" width="200px" height="200.00px" viewBox="0 0 1024 1024" version="1.1" xmlns="http://www.w3.org/2000/svg"><path fill="#bfcbd9" d="M737.35322231 140.82998676h-6.62803594c-19.88410785-53.02428761-66.2803595-92.79250331-125.93268306-92.79250329h-185.58500662c-59.65232355 0-106.0485752 39.7682157-125.93268306 92.79250329h-6.62803594c-72.90839547 0-139.18875497 59.65232355-139.18875497 139.18875497v556.75501985c0 79.53643141 59.65232355 139.18875497 139.18875497 139.18875495h457.33448058c72.90839547 0 139.18875497-59.65232355 139.18875497-139.18875495v-556.75501985c-6.62803595-72.90839547-66.2803595-139.18875497-145.81679093-139.18875497z m-318.14572562 0h185.58500662c26.51214381 0 46.39625165 19.88410785 46.39625166 46.39625166 0 26.51214381-19.88410785 46.39625165-46.39625166 46.39625166h-178.95697067c-26.51214381 0-46.39625165-19.88410785-46.39625166-46.39625166-6.62803595-26.51214381 19.88410785-46.39625165 39.76821571-46.39625166z m364.54197728 695.94377482c0 26.51214381-19.88410785 46.39625165-46.39625166 46.39625166h-457.33448058c-26.51214381 0-46.39625165-19.88410785-46.39625165-46.39625166v-556.75501985c0-26.51214381 19.88410785-46.39625165 46.39625165-46.39625165h6.62803596c19.88410785 53.02428761 66.2803595 92.79250331 125.93268306 92.79250331h185.58500661c59.65232355 0 106.0485752-39.7682157 125.93268306-92.79250331h6.62803595c26.51214381 0 46.39625165 19.88410785 46.39625166 46.39625165l6.62803594 556.75501985z m-450.70644464-324.77376158h364.54197728V419.20749669h-364.54197728v92.79250331z m0 139.18875497h364.54197728v-92.79250332h-364.54197728v92.79250332z m0 139.18875495h271.74947398v-92.79250331h-271.74947398v92.79250331z"  /></svg>