<?xml version="1.0" standalone="no"?><!DOCTYPE svg PUBLIC "-//W3C//DTD SVG 1.1//EN" "http://www.w3.org/Graphics/SVG/1.1/DTD/svg11.dtd"><svg t="1576077292746" class="icon" viewBox="0 0 1024 1024" version="1.1" xmlns="http://www.w3.org/2000/svg" p-id="48683" xmlns:xlink="http://www.w3.org/1999/xlink" width="200" height="200"><defs><style type="text/css"></style></defs><path d="M909.682 793.56v49.444a133.224 133.224 0 0 1-133.156 132.959H247.474a132.958 132.958 0 0 1-133.156-132.959V180.996A133.224 133.224 0 0 1 247.474 48.037h529.117c73.505 0 133.091 59.453 133.091 132.959v98.691a33.67 33.67 0 0 1-33.14 33.472 32.809 32.809 0 0 1-33.14-33.472V180.73c0-36.189-29.561-66.412-65.95-66.412H246.548c-35.725 0-65.949 29.76-65.949 66.412v662.472c0 36.257 29.561 66.48 65.95 66.48h530.838c35.792 0 66.016-29.76 66.016-66.412v-98.957c0-18.493 15.376-33.472 33.14-33.472 18.293 0 33.14 14.184 33.14 33.472v49.246zM428.421 515.712L605.986 664.71a33.803 33.803 0 0 1 4.572 47.125 33.272 33.272 0 0 1-47.19 3.646l-228.8-191.948a34.134 34.134 0 0 1-11.93-29.694 34.266 34.266 0 0 1 11.663-31.55l228.8-192.013a33.34 33.34 0 0 1 47.193 3.711 33.803 33.803 0 0 1-4.573 47.126L452.745 449.43h427.508a33.206 33.206 0 0 1 0 66.28H428.421z" fill="#bfcbd9" p-id="48684"></path></svg>