<?xml version="1.0" standalone="no"?><!DOCTYPE svg PUBLIC "-//W3C//DTD SVG 1.1//EN" "http://www.w3.org/Graphics/SVG/1.1/DTD/svg11.dtd"><svg class="icon" width="200px" height="200.00px" viewBox="0 0 1024 1024" version="1.1" xmlns="http://www.w3.org/2000/svg"><path fill="#bfcbd9" d="M1010.14016 944.0768c0 36.49536-29.58848 66.05824-66.07872 66.05824-19.11296 0-35.99872-8.36096-48.05632-21.31968l-0.32256 0.32256-134.01088-134.01088c29.9776-38.0672 48.55296-85.25312 49.72032-137.17504l177.73056 177.73056-0.31744 0.32256c12.96384 12.06784 21.33504 28.95872 21.33504 48.07168zM448.48128 877.98784c-237.2096 0-429.50656-192.29184-429.50656-429.49632 0-237.21472 192.29696-429.51168 429.50656-429.51168 237.20448 0 429.50656 192.29696 429.50656 429.51168 0 237.2096-192.30208 429.49632-429.50656 429.49632z m0-748.87168c-176.38912 0-319.37024 142.98624-319.37024 319.37024 0 176.38912 142.98112 319.3856 319.37024 319.3856 176.384 0 319.37024-142.99648 319.37024-319.3856 0-176.384-142.98624-319.37024-319.37024-319.37024z" /></svg>