<?xml version="1.0" standalone="no"?><!DOCTYPE svg PUBLIC "-//W3C//DTD SVG 1.1//EN" "http://www.w3.org/Graphics/SVG/1.1/DTD/svg11.dtd"><svg class="icon" width="200px" height="199.61px" viewBox="0 0 1026 1024" version="1.1" xmlns="http://www.w3.org/2000/svg"><path fill="#bfcbd9" d="M542.4 679.2c4.8-15.2 10.4-29.6 16.8-43.2l5.6-11.2H395.2v60h145.6l1.6-5.6zM229.6 590.4c-39.2 0-70.4 32-70.4 70.4s32 70.4 70.4 70.4h44.8c39.2 0 70.4-32 70.4-70.4s-32-70.4-70.4-70.4h-44.8z m45.6 80.8h-44.8c-5.6 0-10.4-4.8-10.4-10.4 0-5.6 4.8-10.4 10.4-10.4h44.8c5.6 0 10.4 4.8 10.4 10.4 0 6.4-4.8 10.4-10.4 10.4z"  /><path fill="#bfcbd9" d="M960.8 245.6H952c-16.8 0-30.4 13.6-30.4 30.4 0 16.8 13.6 30.4 30.4 30.4h8.8c1.6 0 3.2 1.6 3.2 3.2v33.6c0 1.6-1.6 3.2-3.2 3.2H912c-0.8 0-1.6-0.8-2.4-1.6V148c0-60.8-49.6-109.6-109.6-109.6H224.8c-60.8 0-109.6 49.6-109.6 109.6v176.8c0 1.6-1.6 2.4-2.4 2.4H63.2c-1.6 0-3.2-1.6-3.2-3.2v-33.6c0-1.6 1.6-3.2 3.2-3.2H72c16.8 0 30.4-13.6 30.4-30.4s-13.6-30.4-30.4-30.4H63.2c-35.2 0.8-63.2 29.6-63.2 64v33.6c0 34.4 28 63.2 63.2 63.2h24c-10.4 20-16 42.4-16 65.6v316.8c0 48 38.4 86.4 86.4 87.2v65.6c0 35.2 28.8 64 64 64h62.4c35.2 0 64-28.8 64-64v-61.6-4h204.8l-4-10.4c-5.6-14.4-9.6-28.8-12-43.2l-1.6-6.4H158.4c-14.4 0-27.2-12-27.2-27.2V452.8c0-25.6 12-50.4 32.8-66.4l12-8.8V148c0-27.2 22.4-49.6 49.6-49.6h575.2c27.2 0 49.6 22.4 49.6 49.6v229.6l12 8.8c20.8 16 32.8 40 32.8 66.4v57.6l4.8 2.4c15.2 6.4 29.6 14.4 43.2 24l12 8V452.8c0-16-2.4-32-8-47.2h16c34.4 0 63.2-28 63.2-63.2v-33.6c-2.4-34.4-30.4-63.2-65.6-63.2z m-744 676v-61.6c0-1.6 0.8-3.2 2.4-4h65.6c1.6 0.8 2.4 2.4 2.4 4v62.4c-0.8 1.6-2.4 3.2-4 3.2h-62.4c-1.6 0-4-1.6-4-4z"  /><path fill="#bfcbd9" d="M792.8 526.4c-125.6 0-228 102.4-228 228s102.4 228 228 228 228-102.4 228-228-102.4-228-228-228z m171.2 228c0 94.4-76.8 171.2-171.2 171.2-94.4 0-171.2-76.8-171.2-171.2 0-94.4 76.8-171.2 171.2-171.2 94.4 0 171.2 76.8 171.2 171.2zM819.2 215.2c0-50.4-40.8-92-92-92H296.8c-50.4 0-92 40.8-92 92v221.6h613.6V215.2z m-60 0v161.6H265.6V215.2c0-17.6 14.4-32 32-32h429.6c17.6 0.8 32 14.4 32 32zM599.2 577.6C608 568 616 560 624 553.6l3.2-2.4V520H393.6v60h203.2l2.4-2.4z"  /><path fill="#bfcbd9" d="M911.2 656c0-5.6-2.4-10.4-6.4-14.4s-8.8-5.6-14.4-5.6-10.4 2.4-14.4 6.4l-24.8 26.4c-2.4 2.4-4 5.6-4.8 8.8v-24.8c0-5.6-2.4-10.4-6.4-14.4s-8.8-5.6-14.4-5.6-10.4 1.6-14.4 5.6c-4 4-6.4 8.8-6.4 14.4V696h-4.8c3.2-3.2 4-7.2 4.8-12 0-5.6-1.6-10.4-5.6-14.4l-24.8-26.4c-4-4-8.8-6.4-14.4-6.4s-10.4 1.6-14.4 5.6c-4 4-6.4 8.8-6.4 14.4 0 4 0.8 7.2 2.4 10.4L712 644.8c-4.8-3.2-9.6-4.8-15.2-4-5.6 0.8-9.6 3.2-13.6 8-7.2 10.4-5.6 20.8 4 28.8l32 23.2c4.8 3.2 9.6 4 15.2 3.2 5.6-0.8 9.6-3.2 13.6-8 3.2-4 4.8-9.6 4-15.2 0-1.6-0.8-2.4-0.8-4l18.4 20c-5.6 1.6-11.2 4.8-16 9.6-5.6 5.6-8.8 12-10.4 19.2l-4.8-4.8-31.2-23.2c-4-3.2-9.6-4.8-15.2-4-5.6 0.8-10.4 3.2-13.6 8-3.2 4-4.8 9.6-4 15.2 0.8 5.6 3.2 9.6 8 13.6l31.2 23.2c3.2 2.4 5.6 3.2 8.8 4-1.6 0-3.2 0.8-4.8 1.6-4.8 2.4-8.8 6.4-11.2 11.2l-28.8 71.2c-2.4 4.8-2.4 10.4 0 16 2.4 4.8 5.6 8.8 11.2 11.2h0.8c12.8 3.2 22.4-1.6 25.6-12l25.6-64v61.6c0 5.6 2.4 10.4 5.6 14.4 4 4 8.8 6.4 14.4 6.4s10.4-2.4 14.4-6.4 5.6-8.8 5.6-14.4v-28h84.8v4.8h-23.2c-5.6 0-10.4 1.6-14.4 5.6-4 4-6.4 8.8-6.4 14.4s2.4 10.4 5.6 14.4c4 4 8.8 6.4 14.4 6.4h26.4c10.4 0 19.2-4 27.2-11.2 7.2-7.2 11.2-16.8 11.2-26.4V733.6c0-10.4-4-20-11.2-27.2-4.8-4.8-10.4-8-16.8-9.6l24.8-26.4c5.6-4 8-8.8 8-14.4zM742.4 765.6c-2.4-2.4-4.8-4.8-8-5.6-1.6-0.8-3.2-0.8-4.8-1.6 4.8-0.8 8.8-3.2 12.8-8v15.2z m125.6-28.8v5.6H783.2v-5.6h84.8z m-88-8v8-8z m88 53.6v4H783.2v-4h84.8zM845.6 688c0.8 3.2 1.6 5.6 4 8h-4v-8z"  /></svg>