<?xml version="1.0" standalone="no"?><!DOCTYPE svg PUBLIC "-//W3C//DTD SVG 1.1//EN" "http://www.w3.org/Graphics/SVG/1.1/DTD/svg11.dtd"><svg class="icon" width="200px" height="190.51px" viewBox="0 0 1075 1024" version="1.1" xmlns="http://www.w3.org/2000/svg"><path fill="#bfcbd9" d="M204.8 921.6h716.8V358.4H204.8v563.2z m-102.4 0V358.4a51.2 51.2 0 0 1-51.2-51.2V51.2a51.2 51.2 0 0 1 51.2-51.2h921.6a51.2 51.2 0 0 1 51.2 51.2v256a51.2 51.2 0 0 1-51.2 51.2v563.2a51.2 51.2 0 1 1 0 102.4H102.4a51.2 51.2 0 1 1 0-102.4zM153.6 102.4v153.6h819.2V102.4H153.6z m430.336 358.4c0 68.5056 7.2704 111.6672 40.0896 153.9072-2.816-24.7296 10.0352-60.6208 58.5216-75.2128 0 64.1024 34.2528 86.016 34.2528 134.0928 0 79.872-75.7248 145.7152-154.2656 145.7152-78.5408 0-152.9344-65.536-152.9344-145.7152 0-33.536 14.336-74.3424 44.2368-90.3168 0 0 5.7344 51.8656 32.8192 75.1616 2.8672-36.4032-12.6464-155.3408 97.28-197.632z" /></svg>