<?xml version="1.0" standalone="no"?><!DOCTYPE svg PUBLIC "-//W3C//DTD SVG 1.1//EN" "http://www.w3.org/Graphics/SVG/1.1/DTD/svg11.dtd"><svg t="1576077165640" class="icon" viewBox="0 0 1024 1024" version="1.1" xmlns="http://www.w3.org/2000/svg" p-id="44884" xmlns:xlink="http://www.w3.org/1999/xlink" width="200" height="200"><defs><style type="text/css"></style></defs><path d="M927.65 592.058a602.391 602.391 0 0 0-37.235-141.963 1304.576 1304.576 0 0 0-140.102-262.517c-0.466-0.93-1.397-1.396-2.793-3.258l-25.6 206.662h-0.93a19.456 19.456 0 0 1-1.863-4.655 1172.945 1172.945 0 0 0-92.625-202.938A502.132 502.132 0 0 0 441.25 3.26L434.735 0l1.396 24.67a492.265 492.265 0 0 1-13.964 147.548 384.047 384.047 0 0 1-36.77 82.386A1138.688 1138.688 0 0 1 256.464 441.25c-0.93 1.396-2.327 2.327-4.654 5.12l-26.066-130.793a29.882 29.882 0 0 0-2.792 4.655 1071.337 1071.337 0 0 0-112.175 261.12A472.53 472.53 0 0 0 94.022 686.08a23.599 23.599 0 0 1-0.931 6.05v19.55c0.93 10.24 1.862 20.48 3.258 30.72a314.368 314.368 0 0 0 53.993 135.913 531.27 531.27 0 0 0 148.48 143.36c0.93 0.465 2.327 1.396 4.189 2.327-3.258-9.775-6.982-18.618-9.31-27.462a299.473 299.473 0 0 1 12.103-212.713q50.269-112.407 99.607-225.745c0.93-1.862 1.862-3.258 3.258-6.05L486.4 682.821c20.48-78.662 39.564-155.927 52.13-235.986a21.504 21.504 0 0 0 4.655 3.259A741.376 741.376 0 0 1 688.873 629.76a377.856 377.856 0 0 1 45.614 196.887 648.937 648.937 0 0 1-37.236 192.698 23.599 23.599 0 0 1-0.931 4.19 11.962 11.962 0 0 0 2.327-0.931 617.379 617.379 0 0 0 195.491-229.935 363.055 363.055 0 0 0 35.84-131.724 16.71 16.71 0 0 1 0.931-5.12v-36.77c-0.93-8.844-1.862-18.153-3.258-26.997z m0 0L608.816 842.473a543.697 543.697 0 0 0-107.52-111.71 2.793 2.793 0 0 0-1.862-0.465l-14.43 88.437c-21.41-12.568-40.96-24.204-61.44-36.306-0.465 2.327-1.396 4.19-1.861 6.051a301.708 301.708 0 0 1-62.371 118.225 69.818 69.818 0 0 0-16.756 34.91 101.702 101.702 0 0 0 19.083 76.334 7.727 7.727 0 0 0 5.586 2.327h218.763a9.914 9.914 0 0 0 6.982-3.258 342.063 342.063 0 0 0 26.066-36.305 121.297 121.297 0 0 0 14.894-80.524 139.636 139.636 0 0 0-25.134-57.716z m0 0" p-id="44885" fill="#bfcbd9"></path></svg>