<?xml version="1.0" standalone="no"?><!DOCTYPE svg PUBLIC "-//W3C//DTD SVG 1.1//EN" "http://www.w3.org/Graphics/SVG/1.1/DTD/svg11.dtd"><svg class="icon" width="200px" height="200.00px" viewBox="0 0 1024 1024" version="1.1" xmlns="http://www.w3.org/2000/svg"><path fill="#bfcbd9" d="M934.4 145.066667H89.6c-25.6 0-46.933333 21.333333-46.933333 46.933333v550.4c0 25.6 21.333333 46.933333 46.933333 46.933333h328.533333v93.866667h187.733334v-93.866667h328.533333c25.6 0 46.933333-21.333333 46.933333-46.933333V192c0-25.6-21.333333-46.933333-46.933333-46.933333z m-469.333333 597.333333v-46.933333h93.866666v46.933333h-93.866666z m422.4-93.866667H136.533333V234.666667h750.933334v413.866666z m-554.666667-110.933333c-4.266667-4.266667-4.266667-8.533333 0-12.8l17.066667-17.066667c4.266667-4.266667 8.533333-4.266667 12.8 0L469.333333 401.066667l-12.8-12.8c-4.266667 4.266667-12.8 0-17.066666-4.266667l-12.8-8.533333c-4.266667-4.266667-4.266667-17.066667 0-21.333334l51.2-46.933333c4.266667-4.266667 17.066667-4.266667 21.333333 0l12.8 8.533333c4.266667 4.266667 4.266667 12.8 4.266667 17.066667L571.733333 384c4.266667-4.266667 12.8-4.266667 17.066667 4.266667l12.8 8.533333c4.266667 4.266667 4.266667 17.066667 0 21.333333L550.4 469.333333c-4.266667 4.266667-17.066667 4.266667-21.333333 0l-12.8-8.533333c-4.266667-4.266667-4.266667-8.533333-4.266667-17.066667l-12.8-17.066666-106.666667 106.666666c4.266667 4.266667 4.266667 8.533333 0 12.8l-17.066666 17.066667c-4.266667 4.266667-8.533333 4.266667-12.8 0l-29.866667-25.6z m192 0h128c4.266667 0 8.533333 4.266667 8.533333 8.533333s4.266667 8.533333 8.533334 8.533334h12.8c4.266667 0 8.533333 4.266667 8.533333 8.533333v8.533333c0 4.266667-4.266667 8.533333-8.533333 8.533334h-187.733334c-4.266667 0-8.533333-4.266667-8.533333-8.533334v-8.533333c0-4.266667 4.266667-8.533333 8.533333-8.533333h8.533334c4.266667 0 8.533333-4.266667 8.533333-8.533334s4.266667-8.533333 12.8-8.533333z" /></svg>