<?xml version="1.0" standalone="no"?><!DOCTYPE svg PUBLIC "-//W3C//DTD SVG 1.1//EN" "http://www.w3.org/Graphics/SVG/1.1/DTD/svg11.dtd"><svg class="icon" width="200px" height="119.00px" viewBox="0 0 1721 1024" version="1.1" xmlns="http://www.w3.org/2000/svg"><path fill="#bfcbd9" d="M1010.698052 1023.996h-0.006c-18.645927-0.005-36.779856-8.155968-48.483811-21.824915-15.953938-18.490928-66.49274-66.59174-107.864578-66.59174-41.08684 0-92.415639 48.377811-107.153582 65.317745-11.676954 13.431948-29.678884 21.456916-48.148812 21.456916-8.796966 0-17.096933-1.787993-24.678903-5.312979l-1.327995-0.615997-125.751509-74.37971-1.248995-0.924996c-22.890911-16.944934-31.605877-50.102804-20.259921-77.110699 0.089-0.207999 11.595955-28.304889 11.595955-53.922789 0-77.738696-59.799766-140.989449-133.299479-140.98945h-4.457983c-0.268999 0.005-0.542998 0.011-0.806997 0.011-21.054918 0-38.195851-19.784923-43.678829-50.392803-0.434998-2.45899-10.728958-60.526764-10.728958-106.279585 0-45.749821 10.29396-103.830594 10.728958-106.276585 5.544978-31.007879 23.05991-50.918801 44.485826-50.386803h4.457983c73.499713 0 133.299479-63.251753 133.299479-140.989449 0-25.6119-11.500955-53.70379-11.624955-53.982789-11.326956-26.984895-2.55899-60.135765 20.43492-77.032699l1.298995-0.952996L680.190343 5.707978l1.383995-0.620998c7.475971-3.370987 15.656939-5.07798 24.325905-5.07798 18.433928 0 36.465858 7.842969 48.253811 20.983918C769.866993 38.38985 819.516799 83.623673 859.701642 83.623673c39.805845 0 89.151652-44.338827 104.80659-61.43376 11.721954-12.86995 29.629884-20.58192 47.875813-20.581919 8.845965 0 17.183933 1.769993 24.778904 5.259979l1.344994 0.626998 128.1795 75.317706 1.267995 0.934996c22.93091 16.927934 31.665876 50.083804 20.31392 77.110699-0.088 0.207999-11.595955 28.306889-11.595954 53.923789 0 77.737696 59.795766 140.989449 133.294479 140.989449h4.460983c21.393916-0.508998 38.936848 19.374924 44.488826 50.380803 0.434998 2.45199 10.726958 60.521764 10.726958 106.276585 0 45.752821-10.29296 103.826594-10.733958 106.279585-5.543978 31.007879-23.08191 50.850801-44.485826 50.387803h-4.451983c-73.499713 0-133.299479 63.250753-133.299479 140.98945 0 25.6119 11.507955 53.69179 11.619954 53.976789 11.321956 26.967895 2.57499 60.123765-20.37392 77.034699l-1.284995 0.951996-130.345491 76.198702-1.359995 0.616998c-7.459971 3.406987-15.611939 5.12998-24.229905 5.12998z m-3.958985-64.951746c0.582998 0.402998 2.227991 1.083996 3.958985 1.083995 0.068 0 0.133999 0 0.194999-0.005999l121.780524-71.188722c-2.938989-7.220972-16.383936-42.277835-16.383936-78.839692 0-109.349573 81.432682-198.972223 183.525284-204.575201 1.470994-8.580966 9.446963-56.865778 9.446963-93.083637 0-36.212859-7.974969-84.47467-9.446963-93.073636-102.092601-5.610978-183.525283-95.224628-183.525284-204.580201 0-36.616857 13.482947-71.71672 16.399936-78.889692L1012.886043 65.492744a10.479959 10.479959 0 0 0-0.522998-0.013c-2.017992 0-3.922985 0.782997-4.560982 1.230995-2.010992 2.192991-19.376924 20.813919-44.323827 39.377847-36.925856 27.469893-71.835719 41.407838-103.776594 41.407838-32.250874 0-67.451737-14.209944-104.612592-42.226835-25.096902-18.916926-42.541834-37.906852-44.558826-40.127843-0.637998-0.453998-2.56999-1.266995-4.624981-1.266996-0.160999 0-0.307999 0.006-0.424999 0.013l-124.094515 72.089719c2.973988 7.314971 16.363936 42.308835 16.363936 78.805692 0 109.354573-81.428682 198.969223-183.520283 204.580201-1.470994 8.581966-9.446963 56.854778-9.446963 93.073636 0 36.216859 7.974969 84.47167 9.452963 93.072637 102.085601 5.613978 183.519283 95.229628 183.519283 204.580201 0 36.691857-13.540947 71.851719-16.418936 78.929691l117.446541 69.458729c0.079 0.006 0.160999 0.006 0.257999 0.006 1.718993 0 3.342987-0.662997 3.924985-1.060996 2.194991-2.49199 19.733923-22.128914 45.007824-41.720837 37.657853-29.193886 73.453713-43.995828 106.369585-43.995828 33.23387 0 69.299729 15.085941 107.181581 44.836825 25.405901 19.959922 43.023832 39.967844 45.214823 42.502834zM854.774661 699.482268c-97.887618 0-177.517307-84.223671-177.517307-187.759267 0-103.527596 79.629689-187.758267 177.517307-187.758266 97.886618 0 177.528307 84.230671 177.528307 187.758266-0.006 103.535596-79.641689 187.759267-177.528307 187.759267z m0-311.648783c-64.589748 0-117.138542 55.574783-117.138542 123.890516 0 68.320733 52.548795 123.902516 117.138542 123.902516 64.588748 0 117.143542-55.583783 117.143542-123.902516-0.001-68.315733-52.550795-123.890516-117.143542-123.890516z" /></svg>