<?xml version="1.0" encoding="utf-8"?>
<!-- Generator: Adobe Illustrator 24.0.1, SVG Export Plug-In . SVG Version: 6.00 Build 0)  -->
<svg version="1.1" id="图层_1" xmlns="http://www.w3.org/2000/svg" xmlns:xlink="http://www.w3.org/1999/xlink" x="0px" y="0px"
	 viewBox="0 0 200 200" style="enable-background:new 0 0 200 200;" xml:space="preserve">
<style type="text/css">
	.st0{fill:#BFCBD9;}
</style>
<path class="st0" d="M177.8,83.3H22.2v84.1c0,2.6,2.2,4.8,4.9,4.8h61.8c3.1,0,5.6,2.5,5.6,5.6s-2.5,5.6-5.6,5.6H27.1
	c-8.8,0-15.9-7.1-16-15.9l0,0V43.7c0-8.8,7.2-15.9,16-15.9h145.8c8.8,0,16,7.1,16,15.9v61.9c0,3.1-2.5,5.6-5.6,5.6s-5.6-2.5-5.6-5.6
	C177.8,105.6,177.8,83.3,177.8,83.3z M177.8,72.2V43.7c0-2.7-2.2-4.8-4.9-4.8l0,0H27.1c-2.7,0-4.8,2.1-4.9,4.8l0,0v28.6h155.6V72.2z
	"/>
<path class="st0" d="M38.9,63.9c-3.1,0-5.6-2.5-5.6-5.6s2.5-5.6,5.6-5.6H50c3.1,0,5.6,2.5,5.6,5.6s-2.5,5.6-5.6,5.6H38.9z
	 M72.2,63.9c-3.1,0-5.6-2.5-5.6-5.6s2.5-5.6,5.6-5.6h11.1c3.1,0,5.6,2.5,5.6,5.6s-2.5,5.6-5.6,5.6H72.2z M105.6,63.9
	c-3.1,0-5.6-2.5-5.6-5.6s2.5-5.6,5.6-5.6h11.1c3.1,0,5.6,2.5,5.6,5.6s-2.5,5.6-5.6,5.6l0,0H105.6z M127.8,172.2
	c-21.5,0-38.9-17.4-38.9-38.9s17.4-38.9,38.9-38.9s38.9,17.4,38.9,38.9S149.3,172.2,127.8,172.2z M127.8,161.1
	c15.3,0,27.8-12.4,27.8-27.8s-12.4-27.8-27.8-27.8S100,118,100,133.3S112.4,161.1,127.8,161.1z"/>
<path class="st0" d="M151.5,159.4c-2.1-2.2-2-5.8,0.2-7.9c2.2-2.1,5.8-2,7.9,0.2l0,0l22.2,23.6c2.1,2.2,2,5.8-0.2,7.9
	c-2.2,2.1-5.8,2-7.9-0.2l0,0L151.5,159.4z"/>
</svg>
