<?xml version="1.0" standalone="no"?><!DOCTYPE svg PUBLIC "-//W3C//DTD SVG 1.1//EN" "http://www.w3.org/Graphics/SVG/1.1/DTD/svg11.dtd"><svg class="icon" width="200px" height="200.00px" viewBox="0 0 1024 1024" version="1.1" xmlns="http://www.w3.org/2000/svg"><path fill="#bfcbd9" d="M311.612087 562.093908l-100.19498 0c-55.334259 0-100.184747 44.856627-100.184747 100.19805l0 100.189863c0 55.336306 44.851511 100.192933 100.184747 100.192933l100.19498 0c55.331189 0 100.192933-44.856627 100.192933-100.192933l0-100.189863C411.80502 606.949512 366.943276 562.093908 311.612087 562.093908zM261.518179 762.480798c-27.6702 0-50.101071-22.427802-50.101071-50.095955 0-27.6702 22.430872-50.093908 50.101071-50.093908 27.663036 0 50.093908 22.422685 50.093908 50.093908C311.612087 740.052996 289.181215 762.480798 261.518179 762.480798zM562.093908 261.516132l300.582893 0c27.66099 0 50.090838-22.425755 50.090838-50.093908 0-27.6702-22.430872-50.095955-50.090838-50.095955L562.093908 161.326269c-27.663036 0-50.093908 22.425755-50.093908 50.095955C512 239.090377 534.430872 261.516132 562.093908 261.516132zM311.612087 161.326269l-100.19498 0c-55.334259 0-100.184747 44.856627-100.184747 100.189863l0 100.192933c0 55.334259 44.851511 100.189863 100.184747 100.189863l100.19498 0c55.331189 0 100.192933-44.856627 100.192933-100.189863l0-100.192933C411.80502 206.181873 366.943276 161.326269 311.612087 161.326269zM261.518179 361.708042c-27.6702 0-50.101071-22.430872-50.101071-50.093908 0-27.668153 22.430872-50.099025 50.101071-50.099025 27.663036 0 50.093908 22.430872 50.093908 50.099025C311.612087 339.278193 289.181215 361.708042 261.518179 361.708042zM862.675778 562.093908 562.093908 562.093908c-27.663036 0-50.093908 22.430872-50.093908 50.099025s22.430872 50.099025 50.093908 50.099025l300.582893 0c27.66099 0 50.090838-22.430872 50.090838-50.099025S890.336768 562.093908 862.675778 562.093908zM862.675778 361.708042 562.093908 361.708042c-27.663036 0-50.093908 22.425755-50.093908 50.099025 0 27.666106 22.430872 50.090838 50.093908 50.090838l300.582893 0c27.66099 0 50.090838-22.425755 50.090838-50.090838C912.76764 384.133797 890.336768 361.708042 862.675778 361.708042zM862.675778 762.480798 562.093908 762.480798c-27.663036 0-50.093908 22.427802-50.093908 50.093908 0 27.668153 22.430872 50.099025 50.093908 50.099025l300.582893 0c27.66099 0 50.090838-22.430872 50.090838-50.099025C912.76764 784.909623 890.336768 762.480798 862.675778 762.480798z" /></svg>