<?xml version="1.0" standalone="no"?><!DOCTYPE svg PUBLIC "-//W3C//DTD SVG 1.1//EN" "http://www.w3.org/Graphics/SVG/1.1/DTD/svg11.dtd"><svg class="icon" width="200px" height="200.00px" viewBox="0 0 1024 1024" version="1.1" xmlns="http://www.w3.org/2000/svg"><path fill="#bfcbd9" d="M630.21056 756.48H949.76v64h-319.54944v-64zM629.76 627.2h319.54944V691.2H629.76v-64z m0.45056 258.56H949.76v64h-319.54944V885.76z"  /><path fill="#bfcbd9" d="M541.86496 948.4032v-169.30816c0-13.312 0.34304-58.19904 0.34304-58.19904s-0.75776-34.77504 0.57344-60.10368c1.29024-24.51968 45.696-30.66368 45.696-30.66368 0-22.52288 1.85344-41.83552 21.30944-58.21952 0.51712-4.096 1.024-7.68 1.54112-11.776 1.01888-7.168 3.072-12.8 5.12-17.92 2.04288-5.12 5.12-8.704 8.69888-12.288 3.584-3.584 7.68-6.656 12.288-9.728 4.608-3.072 9.216-7.16288 14.848-11.776 4.60288-4.096 8.69888-9.728 12.28288-16.896s7.168-14.336 9.728-22.016c3.072-8.192 5.632-17.408 7.68-26.624 5.632-1.536 11.264-4.608 16.384-9.216 4.60288-4.096 8.69888-9.728 12.28288-16.896s6.656-16.896 8.19712-28.672c1.01888-9.216 1.01888-16.896-0.51712-23.552-1.536-6.656-3.584-11.264-5.632-15.36a22.6816 22.6816 0 0 0-9.216-10.24c0.512-23.04-1.024-46.08-4.608-69.12-2.56-19.456-7.68-40.448-14.848-62.464-7.16288-22.016-17.92-42.496-32.256-60.928-6.656-8.192-14.84288-15.872-25.08288-24.064-10.24-7.68-22.02112-14.848-35.328-20.992-13.312-6.656-27.648-11.264-42.496-15.36-15.36-4.096-31.23712-6.144-48.128-6.144-13.312 0-27.136 1.536-40.96 3.584-14.336 2.56-28.16 6.656-41.984 12.288-13.824 5.632-27.648 13.824-40.96 24.064s-25.6 23.04-36.864 38.4c-11.264 16.384-20.48 35.328-26.112 56.32-6.144 20.992-10.24 40.448-12.288 58.88-3.072 22.016-4.096 44.032-3.584 65.536-4.608 6.144-8.192 11.776-10.24 18.432-2.56 5.632-4.096 12.288-4.608 20.48-1.024 7.68 0 16.896 3.072 26.112 3.072 9.728 6.656 17.408 10.24 22.528 4.096 5.12 7.68 9.216 11.264 12.288 4.096 3.072 8.192 5.12 12.288 6.144 3.072 9.216 5.632 17.92 8.704 26.624 3.072 7.68 6.144 14.848 9.216 22.016 3.584 7.168 7.68 12.8 12.288 16.896 9.728 8.192 18.432 15.872 26.112 23.552s12.288 17.92 13.312 31.744c0.512 8.704 1.024 16.896 1.024 24.576s-1.536 14.848-4.096 21.504c-2.56 7.168-7.168 13.824-13.824 20.992-6.656 7.168-15.872 14.34112-28.16 21.504-14.848 9.728-32.256 17.408-52.224 22.528s-107.008 35.32288-125.44 41.472-34.816 14.848-48.64 25.6c-13.824 10.75712-22.528 27.136-25.6 48.128-5.632 36.864-7.168 42.496-4.096 66.56 3.072 23.552 7.68 37.376 14.336 41.984 5.12 4.096 19.968 8.69888 45.056 14.336 24.576 5.632 180.224 34.816 360.448 34.816-2.03776-3.58912 33.4592 0.68608 33.4592-1.36192z"  /></svg>