<?xml version="1.0" standalone="no"?><!DOCTYPE svg PUBLIC "-//W3C//DTD SVG 1.1//EN" "http://www.w3.org/Graphics/SVG/1.1/DTD/svg11.dtd"><svg t="1576077141496" class="icon" viewBox="0 0 1024 1024" version="1.1" xmlns="http://www.w3.org/2000/svg" p-id="43785" xmlns:xlink="http://www.w3.org/1999/xlink" width="200" height="200"><defs><style type="text/css"></style></defs><path d="M793.6 911.36h-563.2V471.04C230.4 337.92 358.4 230.4 512 230.4s281.6 107.52 281.6 245.76v435.2z m-66.56-440.32c0-97.28-97.28-179.2-215.04-179.2S296.96 373.76 296.96 471.04v373.76M512 153.6c-20.48 0-30.72-15.36-30.72-35.84V30.72c0-15.36 10.24-30.72 30.72-30.72s30.72 15.36 30.72 30.72v87.04c0 20.48-10.24 35.84-30.72 35.84zM911.36 506.88c-10.24 0-25.6-5.12-30.72-20.48-5.12-15.36 0-35.84 15.36-40.96l81.92-35.84c15.36-5.12 35.84 0 40.96 15.36 5.12 15.36 0 35.84-15.36 40.96l-81.92 40.96h-10.24zM107.52 506.88c-5.12 0-10.24 0-15.36-5.12L20.48 471.04C5.12 460.8-5.12 445.44 5.12 424.96c5.12-15.36 25.6-20.48 40.96-15.36l76.8 35.84c15.36 5.12 25.6 25.6 15.36 40.96-5.12 10.24-15.36 20.48-30.72 20.48zM798.72 250.88c-10.24 0-15.36-5.12-20.48-10.24-15.36-10.24-15.36-35.84 0-46.08l61.44-61.44c10.24-15.36 35.84-15.36 46.08 0 15.36 10.24 15.36 35.84 0 46.08L819.2 240.64c-5.12 5.12-15.36 10.24-20.48 10.24zM230.4 250.88c-10.24 0-20.48-5.12-25.6-10.24L143.36 179.2c-10.24-15.36-10.24-35.84 0-46.08 15.36-10.24 35.84-10.24 46.08 0l61.44 66.56c10.24 15.36 10.24 35.84 0 46.08-5.12 0-15.36 5.12-20.48 5.12z" p-id="43786" fill="#bfcbd9"></path><path d="M870.4 1024H153.6c-20.48 0-30.72-15.36-30.72-30.72s15.36-30.72 30.72-30.72h716.8c20.48 0 30.72 15.36 30.72 30.72s-15.36 30.72-30.72 30.72z" p-id="43787" fill="#bfcbd9"></path></svg>