<?xml version="1.0" encoding="UTF-8"?>
<svg width="24px" height="24px" viewBox="0 0 24 24" version="1.1" xmlns="http://www.w3.org/2000/svg" xmlns:xlink="http://www.w3.org/1999/xlink">
    <!-- Generator: Sketch 63.1 (92452) - https://sketch.com -->
    <title>轻微火灾</title>
    <desc>Created with Sketch.</desc>
    <g id="页面1" stroke="none" stroke-width="1" fill="none" fill-rule="evenodd">
        <g id="支队首页-清单明细" transform="translate(-498.000000, -184.000000)">
            <g id="轻微火灾" transform="translate(456.000000, 167.000000)">
                <g id="编组-5" transform="translate(30.000000, 16.000000)">
                    <g id="编组">
                        <g id="轻微火灾" transform="translate(12.000000, 1.000000)">
                            <circle id="椭圆形" stroke="#437FDF" stroke-width="2" cx="12" cy="12" r="11"></circle>
                            <g id="编组" transform="translate(6.000000, 5.000000)" fill="#437FDF" fill-rule="nonzero">
                                <path d="M6.30702817,0.068959203 C6.47206775,0.14397512 10.3816722,1.92152629 10.3816722,5.54512144 C10.3816722,9.16871659 6.47206775,10.9462678 6.30702817,11.0212837 C6.2056321,11.0662253 6.09390823,11.0896689 5.98061653,11.0897815 C5.86608613,11.0901756 5.75304197,11.0667185 5.65053735,11.0212837 C5.48549777,10.9462678 1.57956086,9.16871659 1.57956086,5.54512144 C1.57956086,1.92152629 5.48549777,0.14397512 5.65053735,0.068959203 C5.85715516,-0.0229873311 6.10041036,-0.0229873311 6.30702817,0.068959203 Z M5.97694899,5.21896527 C5.28609553,5.61198803 4.85895127,6.28376772 4.83634206,7.01282425 C4.85895127,7.74188078 5.28609553,8.41366046 5.97694899,8.80668323 C6.66920285,8.4144147 7.09780374,7.74250462 7.12122346,7.01282425 C7.09780374,6.28314388 6.66920285,5.61123379 5.97694899,5.21896527 Z" id="形状结合"></path>
                                <g id="编组-2" transform="translate(0.007301, 10.498758)">
                                    <path d="M0.986565064,0.0518426144 L11.4212373,3.15494929 C11.8850005,3.29286514 12.0393406,3.56803619 11.8842576,3.98046243 L11.8842576,3.98046243 C11.7291746,4.39288866 11.4197515,4.53014386 10.9559882,4.39222801 L0.521316069,1.28912133 C0.0575528588,1.15120548 -0.0967872472,0.876034434 0.0582957511,0.463608196 L0.0582957511,0.463608196 C0.213378749,0.0511819578 0.522801854,-0.086073236 0.986565064,0.0518426144 L0.986565064,0.0518426144 Z" id="路径"></path>
                                    <path d="M11.4194702,1.29060715 L9.17949388,1.95674072 C8.71573067,2.09465657 8.40630757,1.95740137 8.25122457,1.54497514 L8.25122457,1.54497514 C8.09614157,1.1325489 8.25048167,0.857377853 8.71424487,0.719462003 L10.9542212,0.053328447 C11.4179844,-0.0845874034 11.7274075,0.0526677855 11.8824905,0.465094014 L11.8824905,0.465094014 C12.0375735,0.877520252 11.8832334,1.1526913 11.4194702,1.29060715 Z" id="路径"></path>
                                    <path d="M5.81177849,2.95658611 L0.987481699,4.39125577 C0.523718489,4.52917162 0.214295385,4.39191643 0.0592123868,3.97949019 L0.0592123868,3.97949019 C-0.0958706115,3.56706395 0.0584694945,3.29189291 0.522232705,3.15397706 L5.34652948,1.71930741 C5.81029269,1.58139156 6.11971579,1.71864675 6.27479879,2.13107298 L6.27479879,2.13107298 C6.42988179,2.54349922 6.27554169,2.81867026 5.81177849,2.95658611 Z" id="路径"></path>
                                </g>
                            </g>
                        </g>
                    </g>
                </g>
            </g>
        </g>
    </g>
</svg>