<?xml version="1.0" encoding="UTF-8"?>
<svg width="26px" height="24px" viewBox="0 0 26 24" version="1.1" xmlns="http://www.w3.org/2000/svg" xmlns:xlink="http://www.w3.org/1999/xlink">
    <!-- Generator: Sketch 55.1 (78136) - https://sketchapp.com -->
    <title>Icon-gongwuzhiqin</title>
    <desc>Created with Sketch.</desc>
    <g id="页面1" stroke="none" stroke-width="1" fill="none" fill-rule="evenodd">
        <g id="首页（中队）" transform="translate(-1010.000000, -191.000000)" fill="#437FDF" fill-rule="nonzero">
            <g id="编组-7" transform="translate(216.000000, 108.000000)">
                <g id="总案情备份-4" transform="translate(761.000000, 62.000000)">
                    <g id="编组" transform="translate(22.000000, 21.000000)">
                        <g id="Icon-gongwuzhiqin" transform="translate(10.000000, 0.000000)">
                            <path d="M11.4433882,9.49380303 C13.9640542,9.49380303 16.0069548,7.4388071 16.0069548,4.90241719 L16.0069548,4.89878858 C16.0069548,2.36118913 13.9652637,0.306193179 11.4458073,0.306193179 C8.9263508,0.306193179 6.88224067,2.36118913 6.88224067,4.89878858 C6.88224067,7.43638803 8.92272222,9.49138398 11.4433882,9.49380303 Z M21.1414208,19.6659725 C20.796704,18.926948 20.090337,16.7461607 19.2799501,16.7461607 C18.4719823,16.7461607 18.405458,17.0412867 18.405458,17.0412867 L19.2799501,19.2994841 L14.8034698,18.9257385 L12.9093418,14.6028689 C11.0587568,10.197751 9.20696239,9.69942359 7.39992062,9.69942359 C6.52542852,9.69942359 4.68814846,9.80102432 3.2802525,11.5185606 C1.87477556,13.236097 1.01479787,22.7514902 1.01479787,22.7514902 L9.58554608,22.7514902 L6.50486649,16.9687147 L7.8063236,16.1752613 C7.8063236,16.1752613 8.03492526,16.6542362 9.54684104,19.7591065 C11.0587568,22.8639767 12.0916977,23.2861036 12.0916977,23.2861036 L20.147185,23.2861036 C21.332527,23.2861036 22.2892673,22.9171962 22.2892673,21.4391473 C22.2892673,19.9610984 21.1414208,19.6659725 21.1414208,19.6659725 L21.1414208,19.6659725 Z M18.1175893,11.0746622 C18.1175893,11.0746622 17.2854308,12.6264925 16.6274451,13.292945 C15.9658307,13.9569785 14.6764689,15.6479051 15.680381,17.0062102 L18.6352692,12.3180617 L24.8063047,15.0395101 L22.538431,18.3088768 C22.538431,18.3088768 22.2239525,19.6103339 22.6545462,19.667182 C23.0839302,19.721611 26.4149831,14.4843347 26.4149831,14.4843347 L18.1175893,11.0746622 L18.1175893,11.0746622 Z" id="形状"></path>
                        </g>
                    </g>
                </g>
            </g>
        </g>
    </g>
</svg>