<?xml version="1.0" encoding="UTF-8"?>
<svg width="25px" height="24px" viewBox="0 0 25 24" version="1.1" xmlns="http://www.w3.org/2000/svg" xmlns:xlink="http://www.w3.org/1999/xlink">
    <!-- Generator: Sketch 55.1 (78136) - https://sketchapp.com -->
    <title>查看(1)</title>
    <desc>Created with Sketch.</desc>
    <g id="图标" stroke="none" stroke-width="1" fill="none" fill-rule="evenodd">
        <g id="钱" fill="#437FDF" fill-rule="nonzero">
            <path d="M24.9757177,15.0616258 C24.9757177,12.8047291 22.2549267,11.0367676 18.9211493,11.0367676 C18.6992778,11.0367676 18.4324794,11.0457465 18.2173367,11.0610483 L18.2173367,4.47542331 C18.2483711,4.30860508 18.2368068,4.13927503 18.2368068,3.9662206 C18.2368068,1.74220836 15.7071087,0 12.3733057,0 C9.03942592,0 6.42826583,1.74223726 6.42826583,3.9662206 C6.42826583,4.13927503 6.44934772,4.30863397 6.48025417,4.47542331 L6.48025417,6.28126397 C6.29212909,6.26988867 6.10149665,6.26272861 5.90766613,6.26272861 C2.57388868,6.26272861 0.0112885673,8.00467711 0.0112885673,10.2284584 C0.0112885673,10.4020037 -0.016291868,10.5713337 0.014768103,10.7381519 L0.014768103,19.9620054 L0.0552944331,19.9620054 C0.159910726,22.0644696 2.68894358,23.6941954 5.90766613,23.6941954 C9.12395814,23.6941954 11.8144055,22.0671257 11.9227316,19.9619765 L11.9631556,19.9619765 L11.9631556,19.5777864 C12.1535322,19.5902877 12.1774028,19.6103821 12.3733057,19.6103821 C12.5957912,19.6103821 12.8130574,19.5997575 13.0280722,19.5839071 L13.0280722,19.6924054 L13.0714384,19.6924054 L13.0588507,19.9437299 C13.0588507,22.1117607 15.6721087,24 19.0081888,24 C22.3447038,24 24.9578083,22.2761249 24.9578083,20.0711966 L24.9513098,19.8209403 L24.9886891,19.8209403 L24.9886891,15.5786526 C25.0202608,15.4093225 24.9757177,15.2377405 24.9757177,15.0616258 L24.9757177,15.0616258 Z M19.0081632,12.3163137 C21.941129,12.3163137 23.9849715,13.7631112 23.9849715,15.0616258 C23.9849715,16.3600248 21.9411034,17.8068223 19.0081632,17.8068223 C16.0754021,17.8068223 14.0315084,16.3600249 14.0315084,15.0616258 C14.0315084,13.7631112 16.0754021,12.3163137 19.0081632,12.3163137 L19.0081632,12.3163137 Z M24.0378809,17.3119397 L24.0378809,18.0064094 C23.7574458,19.3967636 21.5282925,20.5591789 19.008112,20.5591789 C16.4897737,20.5591789 14.260825,19.3975719 13.9786246,18.0086325 L13.9786246,17.3119397 C15.0503211,18.3893581 16.8844193,19.0863684 19.008112,19.0863684 C21.1321629,19.0863684 22.9661844,18.3893869 24.0378809,17.3119397 L24.0378809,17.3119397 Z M12.3733057,11.71224 C12.1798845,11.71224 12.1518948,11.7027991 11.96313,11.689143 L11.96313,10.7381519 C11.9823698,10.6349083 11.9953669,10.5305097 12.0043983,10.4250429 C12.1789635,10.4368802 12.1931631,10.4440402 12.3733313,10.4440402 C14.4856132,10.4440402 16.2180118,9.74050495 17.2481074,8.66274013 L17.2481074,9.19694541 C16.9716635,10.5664256 14.8562091,11.71224 12.3733057,11.71224 L12.3733057,11.71224 Z M17.3295438,11.1796515 C17.2435021,11.1952131 17.1567696,11.2091291 17.0723142,11.2269427 C17.1595328,11.1494233 17.251152,11.0741847 17.3295438,10.9922192 L17.3295438,11.1796515 L17.3295438,11.1796515 Z M12.3733057,1.26109739 C15.2632379,1.26109739 17.1957097,2.68664558 17.1957097,3.96619171 C17.1957097,5.24544914 15.2632379,6.67096846 12.3732801,6.67096846 C9.4832456,6.67096846 7.46936289,5.24542027 7.46936289,3.96619171 C7.46936289,2.68664558 9.48324562,1.26109739 12.3733057,1.26109739 L12.3733057,1.26109739 Z M7.41711874,6.18327488 C7.50687025,6.27364195 7.609363,6.35725317 7.70983456,6.44190378 C7.6142497,6.42212693 7.51482712,6.40821099 7.41711874,6.39163889 L7.41711874,6.18327488 L7.41711874,6.18327488 Z M5.90766613,7.52339293 C8.79770063,7.52339293 10.8930198,8.94925869 10.8930198,10.2284873 C10.8930198,11.5081778 8.79770063,12.933264 5.90766613,12.933264 C3.01773394,12.933264 1.00385125,11.5081778 1.00385125,10.2284873 C1.00385125,8.94925874 3.01773398,7.52339293 5.90766613,7.52339293 L5.90766613,7.52339293 Z M0.951479169,12.4460324 C2.00782477,13.5076004 3.81487987,14.194448 5.90766615,14.194448 C8.00045241,14.194448 9.88904629,13.5075715 10.9449825,12.4460324 L10.9449825,13.1302528 C10.6688457,14.5001372 8.39072308,15.6456917 5.90766615,15.6456917 C3.42593963,15.6456917 1.22976514,14.5009167 0.951479169,13.1320717 L0.951479169,12.4460324 L0.951479169,12.4460324 Z M0.951479127,14.9267103 C1.98154917,16.0032336 3.795154,16.7067689 5.90766613,16.7067689 C8.01994801,16.7067689 9.91529628,16.0032336 10.9449825,14.9254977 L10.9449825,15.4592987 C10.6688457,16.8291831 8.39072306,17.9746799 5.90766613,17.9746799 C3.42593959,17.9746799 1.22976512,16.8303668 0.951479127,15.4615507 L0.951479127,14.9267103 L0.951479127,14.9267103 Z M0.951479169,17.2559583 C1.98154917,18.3326837 3.795154,19.0360458 5.90766615,19.0360458 C8.01994805,19.0360458 9.9152963,18.3326837 10.9449825,17.2547457 L10.9449825,17.7885468 C10.6688457,19.1585755 8.39072308,20.3039568 5.90766615,20.3039568 C3.42593963,20.3039568 1.22976514,19.1597881 0.951479169,17.7904523 L0.951479169,17.2559583 L0.951479169,17.2559583 Z M5.90766613,22.6329162 C3.33155723,22.6329162 1.06855524,21.3991888 0.933825619,19.9620054 L0.951479127,19.9620054 L0.951479127,19.5850043 C1.98154915,20.6611812 3.79515398,21.3647742 5.90766613,21.3647742 C8.01994801,21.3647742 9.91529628,20.66121 10.9449825,19.5839361 L10.9449825,19.9620054 L10.9623546,19.9620054 C10.8276762,21.3991599 8.48357036,22.6329162 5.90766613,22.6329162 L5.90766613,22.6329162 Z M11.8719458,9.35420725 C11.6757359,8.75195241 11.1186778,8.20573671 10.5708047,7.74523983 C11.1384549,7.86208188 11.7404654,7.93166166 12.3733569,7.93166166 C14.4661431,7.93166166 16.1917874,7.24487171 17.248133,6.18327483 L17.248133,6.86755299 C16.9717147,8.23743736 14.8562603,9.38293421 12.3733569,9.38293421 C12.1488758,9.38293421 12.0901586,9.37187649 11.8719458,9.35420725 L11.8719458,9.35420725 Z M13.0280466,18.5186436 C12.812776,18.5367171 12.5947934,18.5493049 12.3733057,18.5493049 C12.1798845,18.5493049 12.1518948,18.5402105 11.96313,18.5261213 L11.96313,17.4087162 C12.1514086,17.4223724 12.1789635,17.4314668 12.3733057,17.4314668 C12.5964308,17.4314668 12.8133133,17.4189078 13.0280466,17.4011231 L13.0280466,18.5186436 L13.0280466,18.5186436 Z M13.0280466,16.3392086 C12.812776,16.357513 12.5947934,16.3703607 12.3733057,16.3703607 C12.1798845,16.3703607 12.1518948,16.3607466 11.96313,16.3472926 L11.96313,15.0792661 C12.1514086,15.0929511 12.1789635,15.1023343 12.3733057,15.1023343 C12.5800054,15.1023343 12.7812299,15.0913632 12.9802541,15.0763212 C12.9854223,15.2241133 13.0018477,15.3692492 13.0280722,15.5122198 L13.0280466,16.3392086 L13.0280466,16.3392086 Z M13.1680722,13.999769 C12.9076701,14.0260708 12.6428417,14.0413437 12.3733313,14.0413437 C12.1799102,14.0413437 12.1519204,14.0321915 11.9631556,14.0181023 L11.9631556,12.7507687 C12.1514342,12.7639051 12.1789891,12.7733172 12.3733313,12.7733172 C13.011135,12.7733172 13.6168554,12.7022649 14.187192,12.5828822 C13.7154592,12.9964055 13.3661498,13.4754378 13.1680722,13.999769 L13.1680722,13.999769 Z M19.0081632,22.9230147 C16.3279497,22.9230147 13.974531,21.6078703 13.9479996,20.1021755 L13.9563914,19.8209403 L13.970591,19.8209403 C15.0141186,20.9183953 16.8587578,21.6361353 19.0081632,21.6361353 C21.1568267,21.6361353 23.000903,20.918684 24.0448144,19.8209403 L24.0608305,19.8209403 L24.0686851,20.0761047 C24.0686851,21.5925974 21.7041114,22.9230147 19.0081632,22.9230147 L19.0081632,22.9230147 Z M5.4366242,11.0545811 C5.39302769,10.9954816 5.35892314,10.8795346 5.33454081,10.70674 L4.62793952,10.70674 C4.62261788,11.0865994 4.76911651,11.3554199 5.06740982,11.5130859 C5.23667891,11.600768 5.49321781,11.6597231 5.83707763,11.6898936 L5.83707763,12.099375 L6.09082778,12.099375 L6.0908278,11.685765 C6.36141273,11.6695971 6.59500207,11.6131826 6.79213301,11.51733 C7.11493655,11.3611364 7.27655582,11.1101006 7.27655582,10.7645114 C7.27655582,10.5025335 7.15924946,10.2995684 6.9247135,10.1556451 C6.78233404,10.0694932 6.50435507,9.96997389 6.09085339,9.85731815 L6.09085339,9.07369394 C6.26332057,9.08342357 6.38211086,9.13683544 6.44773588,9.23439147 C6.48552464,9.2906327 6.51149323,9.37949852 6.52512992,9.50156627 L7.2137195,9.50156627 C7.20322972,9.1727513 7.0511792,8.93456327 6.75782377,8.78783941 C6.59635804,8.69594213 6.37377021,8.64120221 6.09085339,8.62338862 L6.09085339,8.34561805 L5.83710323,8.34561805 L5.83710323,8.61926003 C5.65921206,8.63031772 5.52358699,8.64723631 5.43145606,8.67070864 C5.27937996,8.70780822 5.14165693,8.77516495 5.01795438,8.8722013 C4.92201135,8.94775742 4.84735486,9.03734499 4.79416405,9.14162805 C4.7408709,9.24608434 4.71421151,9.36171378 4.71421151,9.48918048 C4.71421151,9.68261806 4.78265089,9.84790611 4.91945286,9.98513129 C5.05651066,10.12201 5.29183976,10.2289781 5.62513308,10.3060067 L5.83710323,10.3552611 L5.83710323,11.2334098 C5.63818134,11.2061265 5.50475653,11.1464207 5.4366242,11.0545811 L5.4366242,11.0545811 Z M6.09087895,10.4232529 C6.23576572,10.4656071 6.33853991,10.5067487 6.39881771,10.5463889 C6.50064527,10.6151892 6.55140551,10.7082702 6.55140551,10.8261227 C6.55140551,10.9811326 6.49734481,11.0900062 6.3883791,11.1531766 C6.32643829,11.188746 6.22714364,11.2136042 6.09087895,11.2272025 L6.09087895,10.4232529 L6.09087895,10.4232529 Z M5.55423759,9.69693819 C5.44445317,9.6297547 5.38931789,9.53869472 5.38931789,9.42329623 C5.38931789,9.31782943 5.42616003,9.23468019 5.49948607,9.17347306 C5.57250512,9.11255466 5.6852318,9.08085401 5.83715439,9.07788023 L5.83715439,9.7998354 C5.70961412,9.76845236 5.61523178,9.73406666 5.55423759,9.69693819 L5.55423759,9.69693819 Z M18.4591644,15.6719934 C18.4153887,15.6130383 18.3814377,15.4974088 18.3569019,15.3246719 L17.6503262,15.324672 C17.6451836,15.7045891 17.7915288,15.9732941 18.0898221,16.1309601 C18.2590912,16.2186422 18.515758,16.2775685 18.8595155,16.3079699 L18.8595155,16.7169604 L19.1134191,16.7169604 L19.1134191,16.3037547 C19.3838506,16.2871826 19.6175678,16.2307681 19.8147244,16.1351753 C20.1375023,15.978693 20.2990192,15.7276573 20.2990192,15.3820681 C20.2990192,15.120119 20.1816105,14.9175581 19.9471001,14.7734904 C19.8047463,14.6868766 19.5268952,14.5875305 19.1134191,14.4751924 L19.1134191,13.6915393 C19.2857072,13.7009513 19.4045231,13.7547096 19.4701225,13.851977 C19.5082951,13.9082182 19.5339055,13.9973727 19.5477724,14.1194405 L20.2361062,14.1194405 C20.225642,13.790308 20.0736938,13.5524375 19.7803383,13.405858 C19.6187447,13.3139896 19.3965662,13.2587589 19.1133679,13.2409741 L19.1133679,12.9634923 L18.8594899,12.9634923 L18.8594899,13.2368167 C18.6815731,13.248192 18.5463318,13.2652549 18.4538172,13.2882942 C18.3018946,13.3253937 18.1641715,13.3925772 18.0403666,13.4901044 C17.9443724,13.5653718 17.8698951,13.6554502 17.8165763,13.7592424 C17.7634367,13.8636699 17.7368029,13.9797613 17.7368029,14.1070836 C17.7368029,14.3002036 17.8051655,14.4655494 17.9422745,14.6027168 C18.0791276,14.7398843 18.3143032,14.8468812 18.6475454,14.9235633 L18.8595155,14.9731064 L18.8595155,15.8512552 C18.6605168,15.8237409 18.5271688,15.7638618 18.4591644,15.6719934 L18.4591644,15.6719934 Z M19.1134191,15.0408095 C19.258178,15.0834813 19.3608754,15.124363 19.4213579,15.1639456 C19.5231598,15.2327458 19.5738434,15.3261444 19.5738434,15.4441413 C19.5738434,15.5986604 19.5197315,15.7079093 19.4110216,15.7710508 C19.3488505,15.8066202 19.2495559,15.8311897 19.1134447,15.8448169 L19.1134191,15.0408095 L19.1134191,15.0408095 Z M18.576701,14.3145237 C18.4668142,14.247629 18.4120627,14.1565401 18.4120627,14.0413437 C18.4120627,13.9357614 18.4484699,13.8522657 18.5218472,13.7913762 C18.5952756,13.7301979 18.7075673,13.6984395 18.8594643,13.6957834 L18.8594643,14.4174209 C18.7321031,14.3860379 18.6379766,14.3516233 18.576701,14.3145237 L18.576701,14.3145237 Z M11.8608164,4.8552827 C11.8171943,4.79632754 11.7831153,4.68023616 11.7586307,4.50761477 L11.0521317,4.50761477 C11.0468357,4.88747418 11.1935646,5.15629465 11.4918834,5.31381632 C11.6608967,5.40164273 11.91741,5.46056901 12.261321,5.49079724 L12.261321,5.90007648 L12.5150712,5.90007648 L12.5150712,5.48658207 C12.7855026,5.46998107 13.0192454,5.41402856 13.2163508,5.3179738 C13.5391543,5.16149148 13.7006457,4.91091766 13.7006457,4.56503978 C13.7006457,4.30335052 13.5834673,4.10038543 13.3488289,3.95628888 C13.2064239,3.87013699 12.9285217,3.77035786 12.5150712,3.65816408 L12.5150712,2.87442437 C12.6873849,2.88426947 12.8066101,2.93753699 12.8719537,3.03506418 C12.9099727,3.09101671 12.9355575,3.18031557 12.9496036,3.30244109 L13.6377838,3.30244109 C13.627294,2.97319304 13.4753714,2.73532257 13.1819904,2.58871423 C13.0204223,2.49684583 12.7982182,2.44196154 12.5150456,2.42429229 L12.5150456,2.14631963 L12.2612954,2.14631963 L12.2612954,2.42010596 C12.0832763,2.43099042 11.948035,2.44808224 11.8554948,2.47155459 C11.7038791,2.50848097 11.5658747,2.57537569 11.4420187,2.67293175 C11.3460244,2.74822807 11.2715215,2.83824868 11.2182539,2.94250287 C11.1650631,3.0465261 11.1384293,3.16258862 11.1384293,3.28991096 C11.1384293,3.48352173 11.2068431,3.64863659 11.3439009,3.78551528 C11.4807029,3.92268274 11.7158785,4.02982403 12.0491718,4.10639066 L12.2612954,4.15607813 L12.2612954,5.03408255 C12.0621688,5.00651044 11.9287952,4.94709337 11.8608164,4.8552827 L11.8608164,4.8552827 Z M12.51502,4.22366577 C12.6597788,4.26630865 12.762553,4.30756571 12.8230099,4.34723485 C12.9248119,4.41560203 12.9755721,4.50911612 12.9755721,4.62696866 C12.9755721,4.78197856 12.9213579,4.89085215 12.8128016,4.95402251 C12.750477,4.98947645 12.6511823,5.01413253 12.5150456,5.02804845 L12.51502,4.22366577 L12.51502,4.22366577 Z M11.9784042,3.49778409 C11.8684663,3.43045628 11.8137403,3.33933853 11.8137403,3.22414213 C11.8137403,3.11867535 11.8501987,3.03503525 11.9236527,2.97417461 C11.9969531,2.91342946 12.1092449,2.88126684 12.2612698,2.87855296 L12.2612698,3.60068135 C12.1337551,3.56883632 12.0396286,3.53491256 11.9784042,3.49778409 L11.9784042,3.49778409 Z" id="形状"></path>
        </g>
    </g>
</svg>