<?xml version="1.0" encoding="UTF-8"?>
<svg width="24px" height="23px" viewBox="0 0 24 23" version="1.1" xmlns="http://www.w3.org/2000/svg" xmlns:xlink="http://www.w3.org/1999/xlink">
    <!-- Generator: Sketch 55.1 (78136) - https://sketchapp.com -->
    <title>Icon-qita</title>
    <desc>Created with Sketch.</desc>
    <g id="页面1" stroke="none" stroke-width="1" fill="none" fill-rule="evenodd">
        <g id="首页（中队）" transform="translate(-1196.000000, -191.000000)" fill-rule="nonzero">
            <g id="编组-7" transform="translate(216.000000, 108.000000)">
                <g id="总案情备份-5" transform="translate(949.000000, 62.000000)">
                    <g id="编组" transform="translate(22.000000, 21.000000)">
                        <g id="Icon-qita" transform="translate(10.000000, 0.000000)">
                            <path d="M8.00194855,0.910617065 C8.41908569,0.910617065 8.78987427,1.04966278 9.09113998,1.3509285 C9.3924057,1.65219421 9.5546257,1.9998085 9.5546257,2.41694565 L9.5546257,8.53495712 C9.5546257,8.95209427 9.3924057,9.32288284 9.09113998,9.62414856 C8.78987427,9.92541428 8.41908569,10.0876343 8.00194855,10.0876343 L1.8375885,10.0876343 C1.42045136,10.0876343 1.04966278,9.92541428 0.748397064,9.62414856 C0.447131348,9.34605713 0.308085632,8.97526855 0.308085632,8.55813141 L0.308085632,2.44011993 C0.308085632,2.02298279 0.447131348,1.65219421 0.748397064,1.37410278 C1.04966278,1.07283707 1.39727707,0.933791351 1.8375885,0.933791351 L8.00194855,0.933791351 L8.00194855,0.910617065 Z" id="路径" stroke="#437FDF"></path>
                            <path d="M8.00194855,13.14664 C8.41908569,13.14664 8.78987427,13.2856857 9.09113998,13.5869514 C9.3924057,13.8882172 9.5546257,14.2358315 9.5546257,14.6529686 L9.5546257,20.7941544 C9.5546257,21.2112915 9.3924057,21.5820801 9.09113998,21.8601715 C8.78987427,22.1614372 8.41908569,22.3004829 8.00194855,22.3004829 L1.8375885,22.3004829 C1.42045136,22.3004829 1.04966278,22.1614372 0.748397064,21.8601715 C0.447131348,21.5820801 0.308085632,21.2344658 0.308085632,20.8173286 L0.308085632,14.6761429 C0.308085632,14.2590057 0.447131348,13.8882172 0.748397064,13.6101257 C1.04966278,13.30886 1.39727707,13.1698143 1.8375885,13.1698143 L8.00194855,13.1698143 L8.00194855,13.14664 Z" id="路径" stroke="#437FDF"></path>
                            <path d="M20.3770172,13.14664 C20.7941544,13.14664 21.1649429,13.2856857 21.4662086,13.5869514 C21.7674744,13.8882172 21.9065201,14.2358315 21.9065201,14.6529686 L21.9065201,20.7941544 C21.9065201,21.2112915 21.7674744,21.5820801 21.4662086,21.8601715 C21.1649429,22.1846115 20.8173286,22.3236572 20.3770172,22.3236572 L14.2126572,22.3236572 C13.79552,22.3236572 13.4247314,22.1846115 13.1234657,21.8833458 C12.8222,21.5820801 12.65998,21.2344658 12.65998,20.8173286 L12.65998,14.6761429 C12.65998,14.2590057 12.8222,13.8882172 13.1234657,13.6101257 C13.4247314,13.30886 13.79552,13.1698143 14.2126572,13.1698143 L20.3770172,13.1698143 L20.3770172,13.14664 Z" id="路径" stroke="#437FDF"></path>
                            <path d="M22.1382629,4.38675995 C22.4163544,4.66485138 22.5554001,4.98929138 22.5554001,5.38325424 C22.5554001,5.75404282 22.4163544,6.07848282 22.1382629,6.35657425 L18.1986343,10.2730286 C17.9205429,10.55112 17.5961029,10.6901657 17.20214,10.6901657 C16.8313515,10.6901657 16.5069115,10.55112 16.2056458,10.2730286 L12.2660172,6.33339996 C11.9879257,6.07848282 11.8720543,5.75404282 11.8720543,5.36007996 C11.8720543,4.98929138 12.0111,4.64167709 12.2660172,4.36358566 L16.2056458,0.447131348 C16.4837372,0.215388489 16.8313515,0.0763427734 17.20214,0.0763427734 C17.5729286,0.0763427734 17.8973686,0.215388489 18.1986343,0.470305634 L22.1382629,4.38675995 Z" id="路径" fill="#437FDF"></path>
                        </g>
                    </g>
                </g>
            </g>
        </g>
    </g>
</svg>