<?xml version="1.0" encoding="UTF-8"?>
<svg width="26px" height="25px" viewBox="0 0 26 25" version="1.1" xmlns="http://www.w3.org/2000/svg" xmlns:xlink="http://www.w3.org/1999/xlink">
    <!-- Generator: Sketch 55.1 (78136) - https://sketchapp.com -->
    <title>编组 6</title>
    <desc>Created with Sketch.</desc>
    <g id="页面1" stroke="none" stroke-width="1" fill="none" fill-rule="evenodd">
        <g id="首页（中队）" transform="translate(-822.000000, -190.000000)" fill-rule="nonzero">
            <g id="编组-7" transform="translate(216.000000, 108.000000)">
                <g id="总案情备份-3" transform="translate(573.000000, 62.000000)">
                    <g id="编组-6" transform="translate(34.000001, 20.000000)">
                        <path d="M11.1212956,16.7625 C11.1212956,16.65 11.0837956,16.5375 11.0087956,16.48125 L5.64629555,10.65 C5.64629555,10.65 4.67129555,9.7875 3.79004555,10.2375 C2.90879555,10.6875 3.62129555,12.43125 3.62129555,12.43125 L4.54004555,13.7625 L3.45254555,13.10625 C3.45254555,13.10625 2.83379555,12.69375 2.83379555,11.34375 C2.85254555,9.825 2.85254555,7.14375 2.85254555,7.14375 C2.85254555,7.14375 2.74004555,6 1.63379555,5.8125 C0.808795553,5.6625 0.283795553,6.6375 0.246295553,7.275 C0.208795553,7.89375 0.0400455528,9.525 0.0212955528,10.59375 C0.00254555281,11.6625 -0.241204447,14.925 1.54004555,16.55625 C2.70254555,17.64375 3.13379555,18.3 5.57129555,19.74375 L5.57129555,23.26875 C5.57129555,23.26875 5.51504555,23.71875 6.09629555,23.71875 L10.6150456,23.71875 C10.6150456,23.71875 11.2150456,23.775 11.2337956,23.2125 C11.2150456,22.55625 11.1212956,17.75625 11.1212956,16.7625 Z" id="路径" stroke="#437FDF"></path>
                        <path d="M12.8837956,16.7625 C12.8837956,16.65 12.9212956,16.5375 12.9962956,16.48125 L18.3587956,10.65 C18.3587956,10.65 19.3337956,9.7875 20.2150456,10.2375 C21.0962956,10.6875 20.3837956,12.43125 20.3837956,12.43125 L19.4650456,13.7625 L20.5525456,13.10625 C20.5525456,13.10625 21.1712956,12.69375 21.1712956,11.34375 C21.1525456,9.825 21.1525456,7.14375 21.1525456,7.14375 C21.1525456,7.14375 21.2650456,6 22.3712956,5.8125 C23.1962956,5.6625 23.7212956,6.6375 23.7587956,7.275 C23.7962956,7.89375 23.9650456,9.525 23.9837956,10.59375 C24.0025456,11.6625 24.2650456,14.925 22.4650456,16.575 C21.3025456,17.6625 20.8712956,18.31875 18.4337956,19.7625 L18.4337956,23.2875 C18.4337956,23.2875 18.4900456,23.7375 17.9087956,23.7375 L13.3900456,23.7375 C13.3900456,23.7375 12.7900456,23.79375 12.7712956,23.23125 C12.7900456,22.55625 12.8650456,17.75625 12.8837956,16.7625 L12.8837956,16.7625 Z" id="路径" stroke="#437FDF"></path>
                        <g id="Icon-shehuijiuzhu" transform="translate(3.999999, 0.000000)" fill="#437FDF">
                            <path d="M11.4337962,0.28125 C9.91504625,0.28125 8.60254625,1.05 7.96504625,2.175 C7.32754625,1.05 6.01504625,0.28125 4.49629625,0.28125 C2.22754625,0.28125 0.84004625,2.25 0.84004625,4.1625 C0.84004625,8.68125 7.47754625,12.58125 7.75879625,12.75 C7.81504625,12.7875 7.90879625,12.80625 7.96504625,12.80625 C8.04004625,12.80625 8.11504625,12.7875 8.17129625,12.75 C8.45254625,12.58125 15.0900462,8.68125 15.0900462,4.1625 C15.1087962,2.25 13.7400462,0.28125 11.4337962,0.28125 Z" id="形状"></path>
                        </g>
                    </g>
                </g>
            </g>
        </g>
    </g>
</svg>