<?xml version="1.0" encoding="UTF-8"?>
<svg width="23px" height="23px" viewBox="0 0 23 23" version="1.1" xmlns="http://www.w3.org/2000/svg" xmlns:xlink="http://www.w3.org/1999/xlink">
    <!-- Generator: Sketch 55.1 (78136) - https://sketchapp.com -->
    <title>Icon-jiuyuan</title>
    <desc>Created with Sketch.</desc>
    <g id="页面1" stroke="none" stroke-width="1" fill="none" fill-rule="evenodd">
        <g id="首页（中队）" transform="translate(-638.000000, -191.000000)" fill="#437FDF" fill-rule="nonzero">
            <g id="编组-7" transform="translate(216.000000, 108.000000)">
                <g id="总案情备份-2" transform="translate(387.000000, 62.000000)">
                    <g id="编组" transform="translate(22.000000, 21.000000)">
                        <g id="Icon-jiuyuan" transform="translate(13.000000, 0.000000)">
                            <path d="M21.158,4.0818 L18.2318,4.0818 L18.2318,1.044 C18.2318,0.8706 18.1802,0.7104 18.0956,0.5736 C17.9642,0.2382 17.6396,-2.14939178e-13 17.2586,-2.14939178e-13 L5.1842,-2.14939178e-13 C4.6874,-2.14939178e-13 4.2842,0.4026 4.2842,0.9 C4.2842,0.9246 4.289,0.948 4.2914,0.972 C4.289,0.9966 4.2842,1.0194 4.2842,1.044 L4.2842,4.0812 L1.358,4.0812 C0.695,4.0812 0.158,4.6188 0.158,5.2812 L0.158,9.3348 C0.158,9.8322 0.5612,10.2348 1.058,10.2348 C1.5548,10.2348 1.958,9.8322 1.958,9.3348 L1.9604,9.3348 L1.9604,6.9102 C1.9604,6.3426 2.4212,5.8818 2.9882,5.8818 L19.5266,5.8818 C20.0948,5.8818 20.5544,6.3426 20.5544,6.9102 L20.5544,19.7784 C20.5544,20.3466 20.0948,20.8074 19.5266,20.8074 L2.9876,20.8074 C2.4206,20.8074 1.9598,20.3466 1.9598,19.7784 L1.9598,15.6882 L1.9496,15.6882 C1.9112,15.2262 1.529,14.8632 1.058,14.8632 C0.587,14.8632 0.2036,15.2262 0.1646,15.6882 L0.158,15.6882 L0.158,21.4068 C0.158,22.0692 0.695,22.6068 1.358,22.6068 L21.158,22.6068 C21.8204,22.6068 22.358,22.0692 22.358,21.4068 L22.358,5.2818 C22.358,4.6188 21.8198,4.0818 21.158,4.0818 Z M16.4318,4.0818 L6.0842,4.0818 L6.0842,1.8006 L16.4318,1.8006 L16.4318,4.0818 Z M12.0182,9.3354 L10.5464,9.3354 C10.2146,9.3354 9.9464,9.6042 9.9464,9.9354 L9.9464,12.0078 L7.8494,12.0078 C7.5182,12.0078 7.2494,12.2766 7.2494,12.6078 L7.2494,14.0808 C7.2494,14.4114 7.5182,14.6808 7.8494,14.6808 L9.9464,14.6808 L9.9464,16.7526 C9.9464,17.0844 10.2146,17.3526 10.5464,17.3526 L12.0182,17.3526 C12.35,17.3526 12.6182,17.0844 12.6182,16.7526 L12.6182,14.6802 L14.6666,14.6802 C14.9984,14.6802 15.2666,14.4108 15.2666,14.0802 L15.2666,12.6072 C15.2666,12.276 14.9984,12.0072 14.6666,12.0072 L12.6182,12.0072 L12.6182,9.9348 C12.6182,9.6042 12.35,9.3354 12.0182,9.3354 Z" id="形状"></path>
                        </g>
                    </g>
                </g>
            </g>
        </g>
    </g>
</svg>