<?xml version="1.0" encoding="UTF-8"?>
<svg width="24px" height="26px" viewBox="0 0 24 26" version="1.1" xmlns="http://www.w3.org/2000/svg" xmlns:xlink="http://www.w3.org/1999/xlink">
    <!-- Generator: Sketch 55.1 (78136) - https://sketchapp.com -->
    <title>查看(1)</title>
    <desc>Created with Sketch.</desc>
    <g id="图标" stroke="none" stroke-width="1" fill="none" fill-rule="evenodd">
        <g id="电气火灾" fill="#437FDF" fill-rule="nonzero">
            <path d="M23.3659058,3.5886566 C23.0110537,3.29596475 22.5568429,3.1559817 22.1026321,3.1559817 L21.9748853,3.1559817 C21.9464972,3.1559817 21.6484213,3.18143316 21.1942106,3.18143316 C20.4135358,3.18143316 18.9373509,3.13053021 17.5179422,2.82511263 C15.6869051,2.44334065 13.5719862,0.636286621 12.9616405,0.279966122 C12.6635647,0.11453159 12.2945184,0.0127257294 11.9396663,0.0127257294 C11.5848141,0.0127257294 11.244156,0.11453159 10.917692,0.279966122 C10.8325275,0.330869065 8.63244411,2.36698627 6.48913707,2.82511263 C5.06972843,3.14325594 3.5367671,3.18143316 2.78448054,3.18143316 C2.30188161,3.18143316 2.00380579,3.1559817 1.97541762,3.1559817 L1.86186493,3.1559817 C1.379266,3.1559817 0.953443408,3.29596475 0.598591226,3.5886566 C0.215350906,3.88134845 0.00243960799,4.31402335 0.00243960799,4.74669828 L0.00243960799,8.74257832 C0.00243960799,23.466251 11.1306033,25.3623851 11.5848141,25.4387395 C11.6983668,25.464191 11.7977254,25.464191 11.9112781,25.464191 C12.0248308,25.464191 12.1241894,25.464191 12.2377421,25.4387395 C12.720341,25.3623851 23.9052811,23.466251 23.9052811,8.74257832 L23.9052811,4.74669828 C23.9336692,4.30129765 23.7207579,3.86862272 23.3659058,3.5886566 Z M22.2303789,8.72985259 C22.2303789,11.8731086 21.6910036,14.6345925 20.6264471,16.9252244 C19.788996,18.7195527 18.625081,20.2211891 17.1772841,21.417408 C14.6365427,23.5044281 12.0248308,23.9116516 11.9964426,23.9243773 L11.9538604,23.9243773 L11.9396663,23.9243773 L11.9112781,23.9243773 C11.8828899,23.9243773 9.31376028,23.5044282 6.80140698,21.4428595 C5.33941609,20.2466406 4.18969507,18.7450042 3.35224399,16.9506758 C2.2876875,14.660044 1.73411816,11.89856 1.73411816,8.72985259 L1.73411816,4.73397255 L1.74831224,4.72124679 L1.77670041,4.69579533 C1.80508857,4.6830696 1.80508857,4.67034387 1.87605901,4.67034387 L1.93283535,4.67034387 C2.06058212,4.6830696 2.35865794,4.69579533 2.78448054,4.69579533 C3.63612573,4.69579533 5.28263976,4.64489239 6.88657151,4.28857189 C8.40533876,3.97042858 10.1370173,3.01599862 11.897084,1.53981364 C11.9254722,1.52708791 11.9396662,1.52708791 11.9396663,1.52708791 C11.9680544,1.52708791 12.0106367,1.53981364 12.0390249,1.55253939 C12.1241894,1.60344233 12.3512948,1.76887684 12.5358179,1.90885989 C13.5861803,2.65967813 15.346247,3.93225137 17.1205078,4.30129762 C18.7244395,4.65761814 20.3567595,4.70852106 21.1942106,4.70852106 C21.6058391,4.70852106 21.9039149,4.69579533 22.0316617,4.6830696 L22.1026321,4.6830696 C22.1452144,4.6830696 22.1877966,4.69579533 22.2019907,4.70852106 C22.2161848,4.72124679 22.2161848,4.73397252 22.2161848,4.74669828 L22.2161848,8.72985259 L22.2303789,8.72985259 Z" id="形状"></path>
            <path d="M15.175918,9.97697437 C15.0765594,10.0151516 14.9772007,10.0660545 14.9062303,10.1424089 L14.8920362,10.1551346 C14.5513782,8.81893272 13.6571507,6.87189562 11.1731856,5.99382006 C10.9602743,5.91746566 10.7331689,5.94291712 10.5344517,6.044723 C10.3499286,6.14652886 10.2221818,6.32468912 10.1937936,6.52830085 C10.1086291,7.39365067 9.6118361,9.82426559 8.39114467,10.7023411 C6.94334786,11.7331255 5.48135694,13.4892766 5.73685052,15.3090563 C5.9639559,16.9506759 7.49691723,18.3505065 10.2647641,19.4576452 C10.577034,19.5849025 10.9318861,19.4958224 11.1306033,19.2413077 C11.3293205,18.9995188 11.3009324,18.655924 11.073827,18.4395866 C11.0596329,18.4268608 9.79635921,17.1542876 10.0234646,15.7926342 C10.1086291,15.2199762 10.4492872,14.6854955 11.0312447,14.2019176 C11.2299619,14.7363984 11.6699786,15.3854108 12.5358179,16.0089716 C13.7139271,16.8361443 12.4506534,18.4523123 12.393877,18.515941 C12.223548,18.7322784 12.2093539,19.0249703 12.379683,19.2413077 C12.5074297,19.419468 12.7345351,19.5212738 12.9616405,19.5212738 C13.0184168,19.5212738 13.0751932,19.5212738 13.1319695,19.5085481 C13.2881044,19.4703709 17.0069551,18.6177468 17.972153,16.0216974 C18.5966928,14.3291749 17.9153766,12.3694121 15.9282045,10.1933118 C15.7862637,9.96424864 15.4597997,9.88789424 15.175918,9.97697437 L15.175918,9.97697437 Z" id="路径"></path>
            <path d="M16.666297,15.5890225 C16.2972508,16.6070811 15.2610825,17.2815449 14.3526609,17.7014941 C14.6081545,16.7852413 14.4946018,15.7417313 13.4300453,14.990913 C12.1667717,14.1001118 12.2803243,13.2602134 12.2945184,13.1711333 C12.379683,12.9166186 12.2661303,12.662104 12.0390249,12.5093952 C11.8119195,12.3439606 11.4854555,12.3439606 11.2299619,12.4839437 C9.68280652,13.3238421 8.81696724,14.3800779 8.61825006,15.6017482 C8.53308553,16.1871319 8.60405597,16.7343384 8.76019091,17.230642 C7.79499303,16.5816296 7.25561774,15.8817143 7.14206505,15.1436218 C6.95754192,13.8455971 8.17823335,12.471218 9.27117803,11.6949483 C10.6196162,10.7277926 11.2157679,8.74257832 11.4570673,7.55908518 C13.6003744,8.84438418 13.6429566,11.4022564 13.6429566,11.516788 C13.6429566,11.7713027 13.8132857,12.0130916 14.0829733,12.1021717 C14.3526609,12.2039776 14.6507368,12.1403489 14.8636481,11.9621887 L15.3320529,11.5422395 C16.6379089,13.1202303 17.0779255,14.4818837 16.666297,15.5890225 L16.666297,15.5890225 Z" id="路径"></path>
        </g>
    </g>
</svg>