<?xml version="1.0" encoding="UTF-8"?>
<svg width="21px" height="24px" viewBox="0 0 21 24" version="1.1" xmlns="http://www.w3.org/2000/svg" xmlns:xlink="http://www.w3.org/1999/xlink">
    <!-- Generator: Sketch 55.1 (78136) - https://sketchapp.com -->
    <title>查看(1)</title>
    <desc>Created with Sketch.</desc>
    <g id="图标" stroke="none" stroke-width="1" fill="none" fill-rule="evenodd">
        <g id="工伤" fill="#437FDF" fill-rule="nonzero">
            <path d="M18.6862249,22.2431628 L13.3365608,22.2431628 L11.5224644,23.8790221 L18.6862249,23.8790221 C19.5666946,23.8783489 20.2807088,23.1469991 20.2807088,22.2431628 L20.2807088,8.8891852 L18.6862249,8.8878668 L18.6862249,22.2431628 L18.6862249,22.2431628 Z M18.6862249,8.88783873 L20.2807088,8.88915713 L20.2807088,8.40092675 L18.6862249,8.43240016 L18.6862249,8.88783873 L18.6862249,8.88783873 Z M18.6862249,0.0261697643 L2.72929635,0.024486705 C1.84818147,0.0261697643 1.13514912,0.757519545 1.13514912,1.66166442 L1.13514912,16.8782107 L2.72929635,15.9536446 L2.72929635,1.66166439 L18.6862249,1.66166439 L18.6862249,8.43240014 L20.2807088,8.40092673 L20.2807088,1.66163632 C20.2807088,0.757519518 19.5666946,0.0261697643 18.6862249,0.0261697643 L18.6862249,0.0261697643 Z M11.8654178,19.4506701 C11.6340519,18.9497045 11.6340519,18.3321863 10.9396175,17.8700716 C10.2448184,17.4072836 9.09415992,17.2843635 8.81743525,17.0218327 C8.32923292,16.5600545 8.38045433,16.5091697 8.38045433,16.5091697 C8.38045433,16.5091697 9.24165291,16.9836831 9.43486927,16.7904387 C9.62707579,16.5982041 10.4667311,15.6562462 10.8619438,13.7454576 C11.0264078,12.9531526 11.0547955,12.3105287 11.0225087,11.8025222 C10.9918207,12.0807897 10.7784075,12.2770356 10.3205565,12.3359711 C9.29063026,12.4679237 3.88093662,12.3068259 3.75072316,12.0114753 C3.77748396,12.0934969 3.8058437,12.1722084 3.83883185,12.2418595 C4.19224838,12.9909656 4.72676316,13.7454295 4.72676316,13.7454295 C4.72676316,13.7454295 5.22803734,15.5185712 4.99667138,15.8655079 C4.76530543,16.212108 3.53077404,16.983627 3.53077404,16.983627 C3.53077404,16.983627 1.13806647,18.3713458 0.829026891,18.9875175 C0.520323904,19.604671 -0.0974467105,22.5729603 0.0187411732,22.8813827 C0.133947286,23.1894686 2.61734424,23.8324291 4.43116009,23.8712519 C5.70975987,23.8983774 8.65527157,23.4891671 10.0905371,22.9580465 C10.644323,22.7534414 11.9042968,21.9939563 12.0978217,21.6858704 C12.2900002,21.3778687 12.0977936,19.9516357 11.8654178,19.4506701 L11.8654178,19.4506701 Z M10.3345821,11.5082095 C10.7764439,11.4402135 10.8622804,11.0631779 10.8786062,10.891056 C10.7787441,10.5304022 10.6690921,10.3532311 10.6690921,10.3532311 C10.6690921,10.3532311 10.8623085,10.1991742 11.0551602,9.96814487 C11.2477033,9.73675088 11.325377,9.35096332 11.325377,9.35096332 C11.325377,9.35096332 8.47807237,7.6230401 6.57878465,7.96428243 C5.49892733,8.15719024 5.44706072,8.67086302 5.44706072,8.67086302 C5.44706072,8.67086302 4.64951022,8.67086302 4.26344216,9.08175636 C4.01185134,9.34796184 3.54356532,9.77593832 3.54356532,10.3930918 C3.54356532,10.6141069 3.55400036,10.85487 3.57683399,11.0943146 C3.58656776,11.0949879 8.9248151,11.7248486 10.3345821,11.5082095 L10.3345821,11.5082095 Z M12.8627206,5.59373531 L17.1279271,5.59373531 L17.1279271,6.62646669 L12.8627206,6.62646669 L12.8627206,5.59373531 L12.8627206,5.59373531 Z M12.9798623,7.93045277 L17.1282917,7.93045277 L17.1282917,8.96318416 L12.9798623,8.96318416 L12.9798623,7.93045277 L12.9798623,7.93045277 Z M12.9586836,10.2668617 L17.2066106,10.2668617 L17.2066106,11.299593 L12.9586836,11.299593 L12.9586836,10.2668617 L12.9586836,10.2668617 Z M12.8979809,12.5138154 L17.1282917,12.5138154 L17.1282917,13.5465749 L12.8979809,13.5465749 L12.8979809,12.5138154 L12.8979809,12.5138154 Z M12.8098723,15.1194593 L17.1279551,15.1194593 L17.1279551,16.1525273 L12.8098723,16.1525273 L12.8098723,15.1194593 L12.8098723,15.1194593 Z" id="形状"></path>
        </g>
    </g>
</svg>