<?xml version="1.0" encoding="UTF-8"?>
<svg width="26px" height="26px" viewBox="0 0 26 26" version="1.1" xmlns="http://www.w3.org/2000/svg" xmlns:xlink="http://www.w3.org/1999/xlink">
    <!-- Generator: Sketch 55.1 (78136) - https://sketchapp.com -->
    <title>查看(1)</title>
    <desc>Created with Sketch.</desc>
    <g id="图标" stroke="none" stroke-width="1" fill="none" fill-rule="evenodd">
        <g id="Icon-siwangtixing" fill="#437FDF" fill-rule="nonzero">
            <path d="M13,25.6078559 C6.04014757,25.6078559 0.392144097,19.9598524 0.392144097,13 C0.392144097,6.04014757 6.04014757,0.392144097 13,0.392144097 C19.9852431,0.392144097 25.6078559,6.01475694 25.6078559,13 C25.6078559,19.9598524 19.9598524,25.6078559 13,25.6078559 Z M15.2428385,17.8157552 C15.2428385,17.8157552 15.7224392,18.0922309 17.7141927,18.8990885 C19.6297743,19.7059462 19.1022135,19.124783 20.5889757,19.8582899 C22.2280816,18.0442708 23.2352431,15.6462674 23.2352431,13 C23.2352431,10.7120226 22.4735243,8.60177951 21.1983507,6.89778646 L16.8255208,11.2000868 C17.0258247,11.5132378 16.8734809,12.3624132 16.8537326,12.6727431 C16.828342,13.1015625 16.6759983,13.7560764 16.1992187,13.6319444 C15.9735243,15.3980035 15.2146267,15.9509549 15.2146267,15.9509549 L15.2428385,17.8157552 L15.2428385,17.8157552 Z M10.7148438,17.2148438 L9.45377604,18.4561632 C10.4355469,18.0245226 10.7063802,17.8665365 10.7063802,17.8665365 L10.7148438,17.2148438 Z M2.76475694,13 C2.76475694,15.296441 3.52365451,17.4179687 4.76215278,19.1417101 L9.86002604,14.125651 C9.82899306,13.9704861 9.79513889,13.8096788 9.77256944,13.6319444 C9.29296875,13.7842882 9.14344618,13.1015625 9.11805556,12.6727431 C9.11805556,12.2693142 8.84157986,10.9574653 9.41992188,11.0844184 C9.31835938,10.2267795 9.21961806,9.41992188 9.26757813,9.01649306 C9.41992188,7.55512153 10.8305122,6.04014757 13,5.91601563 C14.7999132,6.0062934 15.8296441,6.7905816 16.3346354,7.75542535 L19.2376302,4.90039063 C17.5082465,3.56597222 15.3500434,2.76475694 13,2.76475694 C7.35199653,2.76475694 2.76475694,7.35199653 2.76475694,13 L2.76475694,13 Z" id="形状"></path>
        </g>
    </g>
</svg>