<?xml version="1.0" standalone="no"?><!DOCTYPE svg PUBLIC "-//W3C//DTD SVG 1.1//EN" "http://www.w3.org/Graphics/SVG/1.1/DTD/svg11.dtd"><svg t="1578297406000" class="icon" viewBox="0 0 1024 1024" version="1.1" xmlns="http://www.w3.org/2000/svg" p-id="13675" xmlns:xlink="http://www.w3.org/1999/xlink" width="200" height="200"><defs><style type="text/css"></style></defs><path d="M816.64 199.68H780.8v-10.24c0-33.28-25.6-58.88-58.88-61.44-33.28 0-58.88 28.16-58.88 61.44v10.24H340.48v-10.24c0-33.28-25.6-61.44-58.88-61.44s-58.88 28.16-58.88 61.44v10.24h-35.84c-33.28 0-58.88 25.6-58.88 58.88v576c0 33.28 25.6 61.44 58.88 61.44H819.2c33.28 0 58.88-28.16 58.88-61.44v-576c-2.56-33.28-28.16-58.88-61.44-58.88z m-94.72-48.64c20.48 0 35.84 15.36 35.84 35.84V294.4c0 20.48-15.36 35.84-35.84 35.84-20.48 0-35.84-15.36-35.84-35.84V189.44c0-20.48 15.36-38.4 35.84-38.4z m-440.32 0c20.48 0 35.84 15.36 35.84 35.84V294.4c0 20.48-15.36 35.84-35.84 35.84-20.48 0-35.84-15.36-35.84-35.84V189.44c0-20.48 15.36-38.4 35.84-38.4z m547.84 683.52c0 7.68-5.12 12.8-12.8 12.8H186.88c-7.68 0-12.8-5.12-12.8-12.8v-422.4h655.36v422.4z" fill="#437FDF" p-id="13676"></path><path d="M448 609.28h107.52v53.76H448zM637.44 716.8H742.4v56.32H637.44z m-189.44 0h107.52v56.32H448z m-186.88 0h107.52v56.32H261.12z m0-107.52h107.52v53.76H261.12z m0-110.08h107.52v53.76H261.12z m376.32 110.08H742.4v53.76H637.44zM448 499.2h107.52v53.76H448z m189.44 0H742.4v53.76H637.44z" fill="#437FDF" p-id="13677"></path></svg>